<?xml version="1.0" encoding="UTF-8"?>
<svg id="Layer_1" xmlns="http://www.w3.org/2000/svg" baseProfile="tiny" version="1.2" viewBox="0 0 263.5 396.02">
  <!-- Generator: Adobe Illustrator 29.1.0, SVG Export Plug-In . SVG Version: 2.1.0 Build 142)  -->
  <path d="M140.88,27.49c-3.04,0-6.08,0-9.13,0s-6.09,0-9.13,0c-1.12,0-2.22-.02-3.02-.06-.8-.04-1.3-.1-1.36-.16-.02-.02-.04-.04-.06-.06-9.88,0-19.72.37-29.55,1.55-4.91.59-9.82,1.38-14.64,2.46s-9.55,2.44-14.15,4.24c-4.6,1.81-9.08,4.06-13.14,6.93-4.06,2.87-7.69,6.34-10.61,10.34-2.91,4-5.11,8.52-6.66,13.21s-2.49,9.57-3.06,14.47c-.57,4.91-.79,9.85-.88,14.78-.09,4.93-.05,9.86-.03,14.79s0,9.86,0,14.79,0,9.86,0,14.79c0,9.86,0,19.72,0,29.58,0,9.86,0,19.72,0,29.58,0,10.42,0,20.85,0,31.27,0,10.42,0,20.85,0,31.27,0,5.21,0,10.42,0,15.64,0,5.21,0,10.43,0,15.64s-.03,10.41.21,15.63c.24,5.22.74,10.47,1.75,15.59.51,2.56,1.14,5.08,1.95,7.56s1.79,4.91,2.97,7.25c1.18,2.34,2.57,4.58,4.14,6.68,1.57,2.1,3.34,4.04,5.26,5.82,3.85,3.55,8.33,6.43,13.05,8.72,4.71,2.29,9.66,4,14.7,5.34,5.05,1.34,10.2,2.33,15.37,3.07,5.18.74,10.38,1.23,15.58,1.54,5.21.31,10.42.45,15.64.49s10.44,0,15.66,0,10.44.04,15.66,0c5.22-.05,10.43-.18,15.64-.49,5.21-.31,10.41-.81,15.58-1.54,5.18-.74,10.33-1.72,15.37-3.07,5.05-1.34,9.99-3.05,14.7-5.34,4.71-2.29,9.2-5.17,13.05-8.72,1.92-1.78,3.69-3.72,5.26-5.82,1.57-2.1,2.96-4.34,4.14-6.68,1.18-2.34,2.16-4.77,2.97-7.25s1.44-5,1.95-7.56c1.01-5.11,1.51-10.36,1.75-15.59s.22-10.43.21-15.63,0-10.42,0-15.64c0-5.21,0-10.42,0-15.64,0-10.42,0-20.85,0-31.27,0-10.42,0-20.85,0-31.27,0-9.86,0-19.73,0-29.59,0-9.86,0-19.73,0-29.59,0-4.93,0-9.86,0-14.8s-.02-9.86,0-14.8.06-9.87-.03-14.79c-.09-4.93-.31-9.85-.88-14.74-.29-2.45-.66-4.89-1.17-7.32-.5-2.44-1.14-4.87-1.92-7.22-.78-2.36-1.71-4.64-2.82-6.86-1.12-2.22-2.42-4.37-3.89-6.38-2.94-4.01-6.55-7.44-10.62-10.29-2.03-1.43-4.19-2.71-6.39-3.86-2.2-1.14-4.45-2.15-6.76-3.05-4.61-1.8-9.43-3.18-14.26-4.25s-9.68-1.85-14.54-2.42c-9.74-1.15-19.57-1.53-29.44-1.53-.02.02-.04.04-.06.06-.06.06-.56.12-1.36.16-.8.04-1.9.06-3.03.06Z" stroke="#fff" stroke-miterlimit="10" stroke-width=".5"/>
  <path d="M117.97,164.25c.5-.25.8-.8.79-1.32-.02-.76-.04-1.29-.07-1.48,0-.04-.01-.07-.02-.08-.35-.52-.69-1.04-1.04-1.56,0-.01-.04-.01-.05-.02-.04,0-.08-.01-.13-.02-.06,0-.12,0-.18-.01-.12,0-.24-.01-.36-.02-.24,0-.47,0-.71,0h-14.27c-.24,0-.47,0-.71,0-.12,0-.24,0-.36.02-.06,0-.12,0-.18.01-.04,0-.08,0-.13.02-.01,0-.04,0-.05.02-.35.52-.69,1.04-1.04,1.56,0,.01-.01.04-.02.08-.03.19-.06.72-.07,1.48-.01.52.29,1.07.79,1.32.18.09.39.14.59.15,5.31.12,11.3.12,16.61,0,.21,0,.41-.05.59-.15Z" fill="none" stroke="#fff" stroke-linecap="round" stroke-linejoin="round" stroke-width=".5"/>
  <path d="M99.37,305.82c0,.78.01,1.52.03,2.03.02.51.05.79.07.83.35.52.7,1.05,1.05,1.57,0,.01.04.01.05.02.04,0,.08.01.13.02.06,0,.12,0,.18.01.12,0,.24.01.36.02.24,0,.47,0,.71,0h14.27c.24,0,.47,0,.71,0,.12,0,.24,0,.36-.02.06,0,.12,0,.18-.01.04,0,.08,0,.13-.02.01,0,.04,0,.05-.02.35-.52.7-1.05,1.05-1.57.03-.04.05-.32.07-.83s.03-1.25.03-2.03v-.99c0-.79-.67-1.43-1.39-1.45-5.31-.12-11.31-.12-16.62,0-.72.02-1.39.66-1.39,1.45v.99c-1.9.04-3.8.1-5.7.19-.91.04-4.76.23-5.67.54-.09.11-.59.15-.69.16-.24.02-.48.03-.72.03h-.39c-.24,0-.48,0-.72-.03-.1,0-.6-.06-.69-.16-.91-.31-4.76-.49-5.67-.54-1.9-.09-3.8-.15-5.7-.19" fill="none" stroke="#fff" stroke-linecap="round" stroke-linejoin="round" stroke-width=".5"/>
  <path d="M123.71,192.14c-.17-.1-.33-.21-.49-.33-1.32-.98-2.42-2.6-3.37-4.26" fill="none" stroke="#fff" stroke-linecap="round" stroke-linejoin="round" stroke-width=".5"/>
  <path d="M143.65,187.56v-23.35c.01-.53.09-1.03.26-1.53.15-.43.44-1.01.9-1.22,0-.04.01-.07.02-.08.35-.52.69-1.04,1.04-1.56,0-.01.04-.01.05-.02.04,0,.08-.01.13-.02.06,0,.12,0,.18-.01.12,0,.24-.01.36-.02.24,0,.47,0,.71,0h14.27c.24,0,.47,0,.71,0,.12,0,.24,0,.36.02.06,0,.12,0,.18.01.04,0,.08,0,.13.02.01,0,.04,0,.05.02.35.52.69,1.04,1.04,1.56,0,.01.01.04.02.08.46.22.75.8.9,1.22.18.5.25,1,.26,1.53" fill="none" stroke="#fff" stroke-linecap="round" stroke-linejoin="round" stroke-width=".5"/>
  <path d="M191.27,289.91s0-.02,0-.03c-.13-.64-.27-1.29-.4-1.93-.03-.14-.11-.48.04-.95.15-.47.54-1.06,1.24-1.13,4.74-.47,10.54-.47,15.28,0,.34.03.64.21.84.42.21.22.33.48.39.71.14.46.07.82.04.95-.13.64-.27,1.29-.4,1.93,0,0,0,.02,0,.03-.05.3-.1,1.49-.11,2.83-.01,1.14-.02,2.27-.03,3.41-5.34.2-11.39.2-16.74,0-.01-1.14-.02-2.27-.03-3.41-.01-1.34-.06-2.53-.11-2.83Z" fill="none" stroke="#fff" stroke-linecap="round" stroke-linejoin="round" stroke-width=".5"/>
  <path d="M208.68,164.25c.5-.25.8-.8.79-1.32-.01-.76-.04-1.29-.07-1.48,0-.04-.01-.07-.02-.08-.35-.52-.69-1.04-1.04-1.56,0-.01-.04-.01-.05-.02-.04,0-.08-.01-.13-.02-.06,0-.12,0-.18-.01-.12,0-.24-.01-.36-.02-.24,0-.47,0-.71,0h-14.27c-.24,0-.47,0-.71,0-.12,0-.24,0-.36.02-.06,0-.12,0-.18.01-.04,0-.08,0-.13.02-.01,0-.04,0-.05.02-.35.52-.69,1.04-1.04,1.56,0,.01-.01.04-.02.08-.03.19-.06.72-.07,1.48-.01.52.29,1.07.79,1.32.18.09.39.14.59.15,5.31.12,11.3.12,16.61,0,.21,0,.41-.05.59-.15Z" fill="none" stroke="#fff" stroke-linecap="round" stroke-linejoin="round" stroke-width=".5"/>
  <path d="M55.41,164.4c5.31.12,11.3.12,16.61,0,.21,0,.41-.05.59-.15.5-.25.8-.8.79-1.32-.01-.76-.04-1.29-.07-1.48,0-.04-.01-.07-.02-.08-.35-.52-.69-1.04-1.04-1.56,0-.01-.04-.01-.05-.02-.04,0-.08-.01-.13-.02-.06,0-.12,0-.18-.01-.12,0-.24-.01-.36-.02-.24,0-.47,0-.71,0h-14.27c-.24,0-.47,0-.71,0-.12,0-.24,0-.36.02-.06,0-.12,0-.18.01-.04,0-.08,0-.13.02-.01,0-.04,0-.05.02-.35.52-.69,1.04-1.04,1.56,0,.01-.01.04-.02.08-.03.19-.06.72-.07,1.48-.01.52.29,1.07.79,1.32.19.09.39.14.59.15Z" fill="none" stroke="#fff" stroke-linecap="round" stroke-linejoin="round" stroke-width=".5"/>
  <path d="M55.41,303.38c5.31-.12,11.31-.12,16.62,0,.72.02,1.39.66,1.39,1.45v.99c0,.78-.01,1.52-.03,2.03-.02.51-.05.79-.07.83-.35.52-.7,1.05-1.05,1.57,0,.01-.04.01-.05.02-.04,0-.08.01-.13.02-.06,0-.12,0-.18.01-.12,0-.24.01-.36.02-.24,0-.47,0-.71,0h-14.27c-.24,0-.47,0-.71,0-.12,0-.24,0-.36-.02-.06,0-.12,0-.18-.01-.04,0-.08,0-.13-.02-.01,0-.04,0-.05-.02-.35-.52-.7-1.05-1.05-1.57-.03-.04-.05-.32-.07-.83s-.03-1.25-.03-2.03v-.99c0-.79.67-1.43,1.39-1.45Z" fill="none" stroke="#fff" stroke-linecap="round" stroke-linejoin="round" stroke-width=".5"/>
  <path d="M144.81,161.45c-.03.19-.06.72-.07,1.48-.01.52.29,1.07.79,1.32.18.09.39.14.59.15,5.31.12,11.3.12,16.61,0,.21,0,.41-.05.59-.15.5-.25.8-.8.79-1.32-.02-.76-.04-1.29-.07-1.48" fill="none" stroke="#fff" stroke-linecap="round" stroke-linejoin="round" stroke-width=".5"/>
  <path d="M164.13,304.83v.99c0,.78-.01,1.52-.03,2.03s-.05.79-.07.83c-.35.52-.7,1.05-1.05,1.57,0,.01-.04.01-.05.02-.04,0-.08.01-.13.02-.06,0-.12,0-.18.01-.12,0-.24.01-.36.02-.24,0-.47,0-.71,0h-14.27c-.24,0-.47,0-.71,0-.12,0-.24,0-.36-.02-.06,0-.12,0-.18-.01-.04,0-.08,0-.13-.02-.01,0-.04,0-.05-.02-.35-.52-.7-1.05-1.05-1.57-.03-.04-.05-.32-.07-.83s-.03-1.25-.03-2.03v-.99c0-.79.67-1.43,1.39-1.45,5.31-.12,11.31-.12,16.62,0,.72.02,1.39.66,1.39,1.45Z" fill="none" stroke="#fff" stroke-linecap="round" stroke-linejoin="round" stroke-width=".5"/>
  <path d="M60.81,252.94c-.25-.05-.5-.09-.76-.14-.22-.15-.35-.4-.35-.67,0-.26.14-.52.35-.67.25-.05.5-.09.76-.14h5.82c.25.05.5.09.76.14.22.15.35.4.35.67,0,.27-.14.52-.35.67-.25.05-.5.09-.76.14h-5.82Z" fill="none" stroke="#fff" stroke-linecap="round" stroke-linejoin="round" stroke-width=".5"/>
  <path d="M62.91,218.25c0,.28-.25.54-.54.54h-1.57c-.25.05-.5.09-.76.14-.22.15-.35.41-.35.67,0,.27.14.52.35.67.25.05.5.09.76.14h1.57c.29,0,.54.25.54.54v1.57c.05.25.09.5.14.76.15.22.4.35.67.35s.52-.14.67-.35c.05-.25.09-.5.14-.76v-1.57c0-.28.25-.54.54-.54h1.57c.25-.05.5-.09.76-.14.22-.15.35-.4.35-.67,0-.26-.13-.52-.35-.67-.25-.05-.5-.09-.76-.14h-1.57c-.28,0-.54-.26-.54-.54v-1.57c-.05-.25-.09-.5-.14-.76-.15-.22-.4-.35-.67-.35-.26,0-.52.14-.67.35-.05.25-.09.5-.14.76v1.57Z" fill="none" stroke="#fff" stroke-linecap="round" stroke-linejoin="round" stroke-width=".5"/>
  <path d="M215.4,190.91c-.18-.06-.35-.14-.53-.22-1.57-.71-3.04-1.88-4.31-3.14.95,1.66,2.04,3.28,3.37,4.26.16.12.33.23.49.33.58.34,1.14.7,1.68,1.1,1.61,1.19,2.81,2.49,3.64,3.88.14.24.28.49.4.75.61,1.25.71,3.67.71,6.14v102.54c-.01,1.55-1.26,2.82-2.81,2.83-.72-.29-3.59-.46-4.32-.5-1.45-.09-2.9-.15-4.35-.19" fill="none" stroke="#fff" stroke-linecap="round" stroke-linejoin="round" stroke-width=".5"/>
  <path d="M198.98,220.93c0-.28-.25-.54-.54-.54h-1.57c-.25-.05-.5-.09-.76-.14-.22-.15-.35-.4-.35-.67s.14-.52.35-.67c.25-.05.5-.09.76-.14h1.57c.28,0,.54-.26.54-.54v-1.57c.05-.25.09-.5.14-.76.15-.22.4-.35.67-.35.26,0,.52.14.67.35.05.25.09.5.14.76v1.57c0,.28.25.54.54.54h1.57c.25.05.5.09.76.14.22.15.35.41.35.67,0,.27-.14.52-.35.67-.25.05-.5.09-.76.14h-1.57c-.29,0-.54.25-.54.54v1.57c-.05.25-.09.5-.14.76-.15.22-.4.35-.67.35s-.52-.14-.67-.35c-.05-.25-.09-.5-.14-.76v-1.57Z" fill="none" stroke="#fff" stroke-linecap="round" stroke-linejoin="round" stroke-width=".5"/>
  <path d="M153.62,220.93c0-.28-.25-.54-.54-.54h-1.57c-.25-.05-.5-.09-.76-.14-.22-.15-.35-.4-.35-.67s.14-.52.35-.67c.25-.05.5-.09.76-.14h1.57c.28,0,.54-.26.54-.54v-1.57c.05-.25.09-.5.14-.76.15-.22.4-.35.67-.35.26,0,.52.14.67.35.05.25.09.5.14.76v1.57c0,.28.25.54.54.54h1.57c.25.05.5.09.76.14.22.15.35.41.35.67,0,.27-.14.52-.35.67-.25.05-.5.09-.76.14h-1.57c-.29,0-.54.25-.54.54v1.57c-.05.25-.09.5-.14.76-.15.22-.4.35-.67.35s-.52-.14-.67-.35c-.05-.25-.09-.5-.14-.76v-1.57Z" fill="none" stroke="#fff" stroke-linecap="round" stroke-linejoin="round" stroke-width=".5"/>
  <path d="M108.27,220.93c0-.28-.25-.54-.54-.54h-1.57l-.76-.14c-.22-.15-.35-.4-.35-.67s.13-.52.35-.67c.25-.05.5-.09.76-.14h1.57c.28,0,.54-.26.54-.54v-1.57c.05-.25.09-.5.14-.76.15-.22.4-.35.67-.35.26,0,.52.14.67.35.05.25.09.5.14.76v1.57c0,.28.25.54.54.54h1.57c.25.05.5.09.76.14.22.15.35.41.35.67,0,.27-.14.52-.35.67-.25.05-.5.09-.76.14h-1.57c-.29,0-.54.25-.54.54v1.57c-.05.25-.09.5-.14.76-.15.22-.4.35-.67.35s-.52-.14-.67-.35c-.05-.25-.09-.5-.14-.76v-1.57Z" fill="none" stroke="#fff" stroke-linecap="round" stroke-linejoin="round" stroke-width=".5"/>
  <path d="M197.03,210.45c.05-.13.1-.26.15-.39.11-.24.36-.41.63-.41h3.93c.27,0,.53.16.63.41.05.13.1.26.15.39.14.11.27.22.41.32.31.03.61.07.92.1.3.05.6.1.9.15h1.11v-.15h1.55l.1.1v49.78s-.07.07-.1.1h-1.28v-.15h-1.09c-.07.05-.14.09-.2.14-.01.03-.02.06-.03.09-.07.05-.14.09-.2.14h-9.64c-.07-.05-.14-.09-.2-.14-.01-.03-.02-.06-.03-.09-.07-.05-.14-.09-.2-.14h-1.09v.15h-1.28l-.1-.1v-49.78s.07-.07.1-.1h1.55v.15h1.11c.3-.05.6-.1.9-.15.31-.03.61-.07.92-.1.14-.11.27-.22.41-.32Z" fill="none" stroke="#fff" stroke-linecap="round" stroke-linejoin="round" stroke-width=".5"/>
  <path d="M196.87,252.94c-.25-.05-.5-.09-.76-.14-.22-.15-.35-.4-.35-.67s.14-.52.35-.67c.25-.05.5-.09.76-.14h5.82c.25.05.5.09.76.14.22.15.35.4.35.67,0,.27-.14.52-.35.67-.25.05-.5.09-.76.14h-5.82Z" fill="none" stroke="#fff" stroke-linecap="round" stroke-linejoin="round" stroke-width=".5"/>
  <path d="M151.68,210.45c.05-.13.1-.26.15-.39.11-.24.36-.41.63-.41h3.93c.27,0,.53.16.63.41l.15.39c.14.11.27.22.41.32.31.03.61.07.92.1.3.05.6.1.9.15h1.11v-.15h1.55s.07.07.1.1v49.78s-.07.07-.1.1h-1.28v-.15h-1.09c-.07.05-.14.09-.2.14-.01.03-.02.06-.03.09-.07.05-.14.09-.2.14h-9.64c-.07-.05-.14-.09-.2-.14-.01-.03-.02-.06-.03-.09-.07-.05-.14-.09-.2-.14h-1.09v.15h-1.28s-.07-.07-.1-.1v-49.78s.07-.07.1-.1h1.55v.15h1.11c.3-.05.6-.1.9-.15.31-.03.61-.07.92-.1.14-.11.27-.22.41-.32Z" fill="none" stroke="#fff" stroke-linecap="round" stroke-linejoin="round" stroke-width=".5"/>
  <path d="M151.52,252.94c-.25-.05-.5-.09-.76-.14-.22-.15-.35-.4-.35-.67s.14-.52.35-.67c.25-.05.5-.09.76-.14h5.82c.25.05.5.09.76.14.22.15.35.4.35.67,0,.27-.14.52-.35.67l-.76.14h-5.82Z" fill="none" stroke="#fff" stroke-linecap="round" stroke-linejoin="round" stroke-width=".5"/>
  <path d="M106.33,210.45l.15-.39c.11-.24.36-.41.63-.41h3.93c.27,0,.53.16.63.41.05.13.1.26.15.39.14.11.27.22.41.32.31.03.61.07.92.1.3.05.6.1.9.15h1.11v-.15h1.55s.07.07.1.1v49.78s-.07.07-.1.1h-1.28v-.15h-1.09c-.07.05-.14.09-.2.14-.01.03-.02.06-.03.09-.07.05-.14.09-.2.14h-9.64c-.07-.05-.14-.09-.2-.14-.01-.03-.02-.06-.03-.09-.07-.05-.14-.09-.2-.14h-1.09v.15h-1.28s-.07-.07-.1-.1v-49.78l.1-.1h1.55v.15h1.11c.3-.05.6-.1.9-.15.31-.03.61-.07.92-.1.14-.11.27-.22.41-.32Z" fill="none" stroke="#fff" stroke-linecap="round" stroke-linejoin="round" stroke-width=".5"/>
  <path d="M106.16,252.94l-.76-.14c-.22-.15-.35-.4-.35-.67s.14-.52.35-.67c.25-.05.5-.09.76-.14h5.82c.25.05.5.09.76.14.22.15.35.4.35.67,0,.27-.14.52-.35.67l-.76.14h-5.82Z" fill="none" stroke="#fff" stroke-linecap="round" stroke-linejoin="round" stroke-width=".5"/>
  <path d="M69.8,210.87v.15h-1.11c-.3-.05-.6-.1-.9-.15-.31-.03-.61-.07-.92-.1-.14-.11-.27-.22-.41-.32-.05-.13-.1-.26-.15-.39-.1-.25-.36-.42-.63-.41h-3.93c-.27,0-.52.16-.63.41-.05.13-.1.26-.15.39-.14.11-.27.22-.41.32-.31.03-.61.07-.92.1-.3.05-.6.1-.9.15h-1.11v-.15h-1.55s-.07.07-.1.1v49.78l.1.1h1.28v-.15h1.09c.07.05.14.09.2.14.01.03.02.06.03.09.07.05.14.09.2.14h9.64c.07-.05.14-.09.2-.14.01-.03.02-.06.03-.09.07-.05.14-.09.2-.14h1.09v.15h1.28s.07-.07.1-.1v-49.78s-.07-.07-.1-.1h-1.55Z" fill="none" stroke="#fff" stroke-linecap="round" stroke-linejoin="round" stroke-width=".5"/>
  <path d="M165.21,187.56c.95,1.66,2.04,3.28,3.37,4.26.16.12.33.23.49.33,2.29,1.34,4.51,3.25,5.72,5.73" fill="none" stroke="#fff" stroke-linecap="round" stroke-linejoin="round" stroke-width=".5"/>
  <path d="M139.78,192.14c.17-.1.33-.21.49-.33,1.32-.98,2.42-2.6,3.37-4.26" fill="none" stroke="#fff" stroke-linecap="round" stroke-linejoin="round" stroke-width=".5"/>
  <path d="M118.68,161.45c.46.22.75.8.9,1.22.18.5.25,1,.26,1.53v23.35" fill="none" stroke="#fff" stroke-linecap="round" stroke-linejoin="round" stroke-width=".5"/>
  <path d="M56.08,285.86c4.74-.47,10.54-.47,15.28,0,.69.07,1.08.66,1.24,1.13.15.47.07.82.04.95-.13.64-.27,1.29-.4,1.93,0,0,0,.02,0,.03-.05.3-.1,1.49-.11,2.83-.01,1.14-.02,2.27-.03,3.41-5.34.2-11.39.2-16.74,0-.01-1.14-.02-2.27-.03-3.41-.01-1.34-.06-2.53-.11-2.83,0-.01,0-.02,0-.03-.13-.64-.27-1.29-.4-1.93-.03-.14-.11-.48.04-.95.15-.47.54-1.06,1.24-1.13Z" fill="none" stroke="#fff" stroke-linecap="round" stroke-linejoin="round" stroke-width=".5"/>
  <path d="M101.43,285.86c4.74-.47,10.54-.47,15.28,0,.34.03.64.21.84.42.21.22.33.48.39.71.14.46.07.82.04.95-.13.64-.27,1.29-.4,1.93,0,0,0,.02,0,.03-.05.3-.1,1.49-.11,2.83-.01,1.14-.02,2.27-.03,3.41-5.34.2-11.39.2-16.74,0-.01-1.14-.02-2.27-.03-3.41-.01-1.34-.06-2.53-.11-2.83,0-.01,0-.02,0-.03-.13-.64-.27-1.29-.4-1.93-.03-.14-.11-.48.04-.95.15-.47.54-1.06,1.24-1.13Z" fill="none" stroke="#fff" stroke-linecap="round" stroke-linejoin="round" stroke-width=".5"/>
  <path d="M215.63,286.66c-.05-.17-.18-.3-.3-.41-.21-.18-.45-.3-.7-.42-.36-.17-.73-.29-1.11-.41-.5-.15-1.01-.27-1.52-.38-1.34-.28-2.69-.46-4.04-.6-2.72-.28-5.44-.39-8.17-.39s-5.45.11-8.17.39c-1.36.14-2.71.32-4.04.6-.51.11-1.02.23-1.52.38-.38.11-.75.24-1.11.41-.25.11-.48.24-.7.42-.13.11-.25.24-.3.41" fill="none" stroke="#fff" stroke-linecap="round" stroke-linejoin="round" stroke-width=".5"/>
  <path d="M178.71,204.01c0-2.47.1-4.88.71-6.14,1.21-2.48,3.43-4.39,5.72-5.73" fill="none" stroke="#fff" stroke-linecap="round" stroke-linejoin="round" stroke-width=".5"/>
  <path d="M185.14,192.14c.17-.1.33-.21.49-.33,1.32-.98,2.42-2.6,3.37-4.26" fill="none" stroke="#fff" stroke-linecap="round" stroke-linejoin="round" stroke-width=".5"/>
  <path d="M223.62,160.47c1.35.03,2.71.28,4.03.75,1.33.48,2.62,1.19,3.83,2.08.98,1.43,1.59,3.06,1.74,4.79.03.3.04.59.04.89v22.35c0,2.49-.6,4.94-1.71,7.13-.56,1.09-1.25,2.12-2.06,3.06-.82.94-1.77,1.79-2.77,2.49h-5.87" fill="none" stroke="#fff" stroke-linecap="round" stroke-linejoin="round" stroke-width=".5"/>
  <path d="M214.62,161.29c3-.27,6-.54,9-.82h10.18c1.54-.02,2.71-1.33,2.73-2.84" fill="none" stroke="#fff" stroke-linecap="round" stroke-linejoin="round" stroke-width=".5"/>
  <path d="M36.77,204.01c-1-.71-1.95-1.56-2.77-2.49-.82-.94-1.51-1.96-2.06-3.06-1.12-2.18-1.71-4.63-1.71-7.13v-22.35c0-.3.01-.59.04-.89.16-1.73.77-3.36,1.74-4.79,1.21-.89,2.51-1.6,3.83-2.08s2.68-.72,4.03-.75" fill="none" stroke="#fff" stroke-linecap="round" stroke-linejoin="round" stroke-width=".5"/>
  <path d="M84.08,197.87c.61,1.25.71,3.67.71,6.14" fill="none" stroke="#fff" stroke-linecap="round" stroke-linejoin="round" stroke-width=".5"/>
  <path d="M88,204.01c0-2.47.1-4.88.71-6.14" fill="none" stroke="#fff" stroke-linecap="round" stroke-linejoin="round" stroke-width=".5"/>
  <path d="M99.46,161.45c-.46.22-.75.8-.9,1.22-.18.5-.25,1-.26,1.53v23.35" fill="none" stroke="#fff" stroke-linecap="round" stroke-linejoin="round" stroke-width=".5"/>
  <path d="M74.5,187.56c.95,1.66,2.04,3.28,3.37,4.26.16.12.33.23.49.33,2.29,1.34,4.51,3.25,5.72,5.73" fill="none" stroke="#fff" stroke-linecap="round" stroke-linejoin="round" stroke-width=".5"/>
  <path d="M215.4,190.91c.62.34,1.21.7,1.79,1.1" fill="none" stroke="#fff" stroke-linecap="round" stroke-linejoin="round" stroke-width=".5"/>
  <path d="M52.94,187.56v-23.35c.01-.53.09-1.03.26-1.53.15-.43.44-1.01.9-1.22" fill="none" stroke="#fff" stroke-linecap="round" stroke-linejoin="round" stroke-width=".5"/>
  <path d="M43.36,197.87c.12-.25.26-.5.4-.75.83-1.39,2.02-2.69,3.64-3.88.54-.4,1.1-.76,1.68-1.1.17-.1.33-.21.49-.33,1.32-.98,2.42-2.6,3.37-4.26-1.27,1.26-2.74,2.43-4.31,3.14-.17.08-.35.15-.53.22-.62.34-1.21.7-1.79,1.1-1.66,1.2-2.93,2.5-3.88,3.88-.15.24-.3.49-.43.75-.64,1.47-.76,4.35-.76,7.36v105.57c.7,0,1.41,0,2.11-.03.28,0,1.83-.05,2.1-.16" fill="none" stroke="#fff" stroke-linecap="round" stroke-linejoin="round" stroke-width=".5"/>
  <path d="M26.97,157.63c.02,1.51,1.19,2.82,2.73,2.84h10.18c3,.27,6,.54,9,.82" fill="none" stroke="#fff" stroke-linecap="round" stroke-linejoin="round" stroke-width=".5"/>
  <path d="M98.29,187.56c-.95,1.66-2.05,3.28-3.37,4.26-.16.12-.33.23-.49.33" fill="none" stroke="#fff" stroke-linecap="round" stroke-linejoin="round" stroke-width=".5"/>
  <path d="M73.33,161.45c.46.22.75.8.9,1.22.18.5.25,1,.26,1.53v23.35" fill="none" stroke="#fff" stroke-linecap="round" stroke-linejoin="round" stroke-width=".5"/>
  <path d="M210.56,187.56v-23.35c-.01-.53-.09-1.03-.26-1.53-.15-.43-.44-1.01-.9-1.22" fill="none" stroke="#fff" stroke-linecap="round" stroke-linejoin="round" stroke-width=".5"/>
  <path d="M189,187.56v-23.35c.01-.53.09-1.03.26-1.53.15-.43.44-1.01.9-1.22" fill="none" stroke="#fff" stroke-linecap="round" stroke-linejoin="round" stroke-width=".5"/>
  <line x1="165.21" y1="187.56" x2="165.21" y2="164.2" fill="none" stroke="#fff" stroke-linecap="round" stroke-linejoin="round" stroke-width=".5"/>
  <path d="M54.8,287.94c-.74.12-1.47.26-2.2.47-.41.11-1.74.5-1.91,1.07-1.55-.01-2.83-1.26-2.83-2.82v-50.45" fill="none" stroke="#fff" stroke-linecap="round" stroke-linejoin="round" stroke-width=".5"/>
  <path d="M138.57,236.21v50.45c0,1.56,1.29,2.8,2.83,2.82" fill="none" stroke="#fff" stroke-linecap="round" stroke-linejoin="round" stroke-width=".5"/>
  <path d="M170.28,236.21v50.45c0,1.56-1.29,2.8-2.83,2.82" fill="none" stroke="#fff" stroke-linecap="round" stroke-linejoin="round" stroke-width=".5"/>
  <path d="M183.93,236.21v50.45c0,1.56,1.29,2.8,2.83,2.82" fill="none" stroke="#fff" stroke-linecap="round" stroke-linejoin="round" stroke-width=".5"/>
  <path d="M190.18,308.68c-1.45.05-2.9.11-4.35.19-.73.04-3.6.22-4.32.5-1.55-.01-2.8-1.28-2.81-2.83v-102.54" fill="none" stroke="#fff" stroke-linecap="round" stroke-linejoin="round" stroke-width=".5"/>
  <path d="M181.52,309.38c-.28.11-1.83.16-2.1.16-.7.02-1.41.03-2.11.03h-.39" fill="none" stroke="#fff" stroke-linecap="round" stroke-linejoin="round" stroke-width=".5"/>
  <path d="M90.81,309.38c-.28.11-1.83.16-2.1.16-.7.02-1.41.03-2.11.03h-.39" fill="none" stroke="#fff" stroke-linecap="round" stroke-linejoin="round" stroke-width=".5"/>
  <path d="M136.16,309.38c-.28.11-1.83.16-2.1.16-.7.02-1.41.03-2.11.03h-.39" fill="none" stroke="#fff" stroke-linecap="round" stroke-linejoin="round" stroke-width=".5"/>
  <path d="M88.71,197.87c1.21-2.48,3.43-4.39,5.72-5.73" fill="none" stroke="#fff" stroke-linecap="round" stroke-linejoin="round" stroke-width=".5"/>
  <path d="M222.26,309.57c-.7,0-1.41,0-2.11-.03-.28,0-1.83-.05-2.1-.16" fill="none" stroke="#fff" stroke-linecap="round" stroke-linejoin="round" stroke-width=".5"/>
  <path d="M176.91,309.57c-.7,0-1.41,0-2.11-.03-.28,0-1.83-.05-2.1-.16" fill="none" stroke="#fff" stroke-linecap="round" stroke-linejoin="round" stroke-width=".5"/>
  <path d="M131.55,309.57c-.7,0-1.41,0-2.11-.03-.28,0-1.83-.05-2.1-.16" fill="none" stroke="#fff" stroke-linecap="round" stroke-linejoin="round" stroke-width=".5"/>
  <path d="M122.09,289.48c-.17-.57-1.5-.95-1.91-1.07-.72-.2-1.46-.35-2.2-.47" fill="none" stroke="#fff" stroke-linecap="round" stroke-linejoin="round" stroke-width=".5"/>
  <path d="M72.12,292.74c1.11.1,2.21.21,3.31.36" fill="none" stroke="#fff" stroke-linecap="round" stroke-linejoin="round" stroke-width=".5"/>
  <path d="M52.01,293.09c1.1-.15,2.2-.26,3.31-.36" fill="none" stroke="#fff" stroke-linecap="round" stroke-linejoin="round" stroke-width=".5"/>
  <path d="M117.47,292.74c1.11.1,2.21.21,3.31.36" fill="none" stroke="#fff" stroke-linecap="round" stroke-linejoin="round" stroke-width=".5"/>
  <path d="M81.98,309.38c-.72-.29-3.59-.46-4.32-.5-1.45-.09-2.9-.15-4.35-.19" fill="none" stroke="#fff" stroke-linecap="round" stroke-linejoin="round" stroke-width=".5"/>
  <path d="M28.69,198.7c0-11.8,0-23.6.01-35.4,0-.75.05-1.49.21-2,.16-.51.42-.8.79-.83.63-.12,1.55-.23,2.76-.34,1.21-.1,2.7-.2,4.4-.28s3.6-.16,5.6-.22c2-.06,4.12-.12,6.27-.16,4.32-.09,8.83-.16,13.39-.21,4.56-.05,9.17-.08,13.8-.11,4.63-.03,9.27-.05,13.92-.06,4.65-.01,9.31-.02,13.97-.03,9.32-.01,18.63-.02,27.95-.02s18.64,0,27.95.02c4.66,0,9.31.02,13.96.03,4.65.01,9.3.03,13.92.06,4.62.03,9.22.06,13.78.11,4.56.05,9.07.11,13.41.21,4.33.09,8.48.21,11.86.38,1.69.08,3.2.18,4.41.28s2.13.22,2.76.34c.37.03.63.32.79.83s.21,1.25.21,2c0,11.8.01,23.6.01,35.4,0,9,0,18.01,0,27.01,0,9-.01,18.01-.02,27.01,0,9-.02,18.01-.03,27.01,0,4.5-.02,9-.02,13.51,0,4.5,0,9-.19,13.5-.07.79-.24,1.54-.54,2.04s-.71.76-1.19.79c-.82.11-1.95.22-3.34.31-1.39.09-3.05.18-4.85.25-3.59.14-7.75.25-12.02.33-4.28.08-8.68.14-13.12.18-4.44.05-8.93.08-13.43.11-4.5.03-9.01.05-13.53.06-4.52.02-9.05.03-13.58.04-9.06.02-18.12.02-27.19.02s-18.07,0-27.09-.02c-4.51,0-9.02-.02-13.52-.04-4.49-.02-8.98-.04-13.44-.06-4.46-.03-8.91-.06-13.31-.1-4.41-.04-8.77-.1-13.09-.18-4.32-.08-8.58-.18-12.25-.33-1.84-.07-3.52-.16-4.95-.25-1.42-.09-2.58-.2-3.41-.32-.48-.03-.89-.28-1.19-.79-.3-.5-.47-1.25-.54-2.04-.19-4.5-.19-9-.19-13.5,0-4.5-.01-9-.02-13.51-.02-9-.02-18.01-.03-27.01,0-9-.02-18.01-.02-27.01,0-9,0-18.01,0-27.01Z" fill="none" stroke="#fff" stroke-linecap="round" stroke-linejoin="round" stroke-width=".5"/>
  <path d="M92.14,288.31c0,.81.16,1.6.46,2.26.3.65.72,1.17,1.2,1.57.98.8,2.22,1.13,3.56.96,1.1-.15,2.2-.26,3.31-.36" fill="none" stroke="#fff" stroke-linecap="round" stroke-linejoin="round" stroke-width=".5"/>
  <path d="M123.71,192.14c2.29,1.34,4.51,3.25,5.72,5.73.61,1.25.71,3.67.71,6.14v102.54c-.01,1.55-1.26,2.82-2.81,2.83-.72-.29-3.59-.46-4.32-.5-1.45-.09-2.9-.15-4.35-.19" fill="none" stroke="#fff" stroke-linecap="round" stroke-linejoin="round" stroke-width=".5"/>
  <path d="M208.18,292.74c1.11.1,2.21.21,3.31.36,1.34.18,2.58-.16,3.56-.95.49-.4.91-.91,1.21-1.57s.47-1.45.46-2.26c-.15-17.38-.3-34.76-.45-52.13-.04-4.97-.14-9.94-.37-14.89-.11-2.47-.26-4.95-.45-7.41s-.44-4.93-.78-7.38-.76-4.87-1.34-7.24c-.58-2.37-1.33-4.7-2.41-6.86-1.08-2.16-2.49-4.16-4.41-5.63-.96-.74-2.05-1.34-3.21-1.74-1.17-.4-2.42-.61-3.67-.59-1.25.02-2.51.26-3.67.7s-2.22,1.07-3.16,1.83c-1.87,1.52-3.24,3.53-4.29,5.71-1.05,2.18-1.78,4.53-2.35,6.91-.57,2.38-.98,4.79-1.3,7.21s-.56,4.85-.75,7.29-.33,4.88-.44,7.34c-.22,4.9-.32,9.83-.36,14.76-.15,17.38-.3,34.76-.45,52.13,0,.81.16,1.6.46,2.26.3.65.72,1.17,1.2,1.57.98.8,2.22,1.13,3.56.96,1.1-.15,2.2-.26,3.31-.36" fill="none" stroke="#fff" stroke-linecap="round" stroke-linejoin="round" stroke-width=".5"/>
  <path d="M25.88,163.3c0-1.53.06-3,.23-4.02.17-1.02.45-1.58.86-1.65,1.3-.23,3.79-.44,7.16-.61,1.69-.09,3.6-.16,5.62-.23s4.16-.12,6.36-.17c4.4-.1,9.03-.17,13.73-.22,4.7-.05,9.46-.09,14.23-.12,4.77-.03,9.56-.04,14.37-.06s9.61-.02,14.42-.02c9.62,0,19.25,0,28.88,0s19.25,0,28.88,0c4.81,0,9.62.01,14.42.02s9.6.03,14.37.06c4.77.03,9.51.06,14.21.11s9.34.12,13.75.22c4.42.1,8.6.23,11.98.4,1.69.08,3.17.18,4.38.28,1.21.1,2.14.21,2.79.33.41.07.69.63.86,1.65.17,1.02.23,2.49.23,4.02" fill="none" stroke="#fff" stroke-linecap="round" stroke-linejoin="round" stroke-width=".5"/>
  <path d="M26.15,306.86c.07,1.58.25,3.09.56,4.13.31,1.03.76,1.59,1.32,1.67.86.12,2.02.23,3.44.33s3.1.19,4.94.26c3.68.15,8.02.26,12.44.34s8.92.14,13.46.18c4.54.04,9.11.07,13.71.1s9.21.04,13.85.05,9.28.02,13.93.03c9.3.01,18.62.02,27.94.02s18.7,0,28.04-.02c4.67,0,9.34-.02,14.01-.03,4.66-.01,9.31-.03,13.95-.05s9.26-.05,13.83-.1c4.57-.04,9.09-.1,13.46-.18s8.59-.19,12.2-.34c1.8-.08,3.45-.16,4.84-.26,1.39-.1,2.53-.21,3.38-.32.56-.08,1.01-.64,1.33-1.67.31-1.03.49-2.54.56-4.12" fill="none" stroke="#fff" stroke-linecap="round" stroke-linejoin="round" stroke-width=".5"/>
  <path d="M84.79,204.01v102.54c-.01,1.55-1.26,2.82-2.81,2.83.28.11,1.83.16,2.1.16.7.02,1.41.03,2.11.03" fill="none" stroke="#fff" stroke-linecap="round" stroke-linejoin="round" stroke-width=".5"/>
  <path d="M99.47,308.68c-1.45.05-2.9.11-4.35.19-.73.04-3.6.22-4.32.5-1.55-.01-2.8-1.28-2.81-2.83v-102.54" fill="none" stroke="#fff" stroke-linecap="round" stroke-linejoin="round" stroke-width=".5"/>
  <path d="M118.78,305.82c1.9.04,3.8.1,5.7.19.91.04,4.76.23,5.67.54.09.11.59.15.69.16.24.02.48.03.72.03h.39c.24,0,.48,0,.72-.03.1,0,.6-.06.69-.16.91-.31,4.76-.49,5.67-.54,1.9-.09,3.8-.15,5.7-.19" fill="none" stroke="#fff" stroke-linecap="round" stroke-linejoin="round" stroke-width=".5"/>
  <path d="M164.13,305.82c1.9.04,3.8.1,5.7.19.91.04,4.76.23,5.67.54.09.11.59.15.69.16.24.02.48.03.72.03h.39c.24,0,.48,0,.72-.03.1,0,.6-.06.69-.16.91-.31,4.76-.49,5.67-.54,1.9-.09,3.8-.15,5.7-.19v-.99c0-.79.67-1.43,1.39-1.45,5.31-.12,11.31-.12,16.62,0,.72.02,1.39.66,1.39,1.45v.99c0,.78-.01,1.52-.03,2.03-.02.51-.05.79-.07.83-.35.52-.7,1.05-1.05,1.57,0,.01-.04.01-.05.02-.04,0-.08.01-.13.02-.06,0-.12,0-.18.01-.12,0-.24.01-.36.02-.24,0-.47,0-.71,0h-14.27c-.24,0-.47,0-.71,0-.12,0-.24,0-.36-.02-.06,0-.12,0-.18-.01-.04,0-.08,0-.13-.02-.01,0-.04,0-.05-.02-.35-.52-.7-1.05-1.05-1.57-.03-.04-.05-.32-.07-.83s-.03-1.25-.03-2.03" fill="none" stroke="#fff" stroke-linecap="round" stroke-linejoin="round" stroke-width=".5"/>
  <path d="M41.24,309.57h-10.55c-.77.02-1.48.39-1.97.98-.49.59-.72,1.35-.67,2.11" fill="none" stroke="#fff" stroke-linecap="round" stroke-linejoin="round" stroke-width=".5"/>
  <path d="M144.83,308.68c-1.45.05-2.9.11-4.35.19-.73.04-3.6.22-4.32.5-1.55-.01-2.8-1.28-2.81-2.83v-102.54c0-2.47.1-4.88.71-6.14,1.21-2.48,3.43-4.39,5.72-5.73" fill="none" stroke="#fff" stroke-linecap="round" stroke-linejoin="round" stroke-width=".5"/>
  <path d="M137.49,288.31c0,.81.16,1.6.46,2.26.3.65.72,1.17,1.2,1.57.98.8,2.22,1.13,3.56.96,1.1-.15,2.2-.26,3.31-.36" fill="none" stroke="#fff" stroke-linecap="round" stroke-linejoin="round" stroke-width=".5"/>
  <path d="M221.5,196.64c.64,1.47.76,4.35.76,7.36v105.57h10.55c.77.02,1.48.39,1.97.98.49.59.72,1.35.67,2.11" fill="none" stroke="#fff" stroke-linecap="round" stroke-linejoin="round" stroke-width=".5"/>
  <path d="M217.19,192.02c1.66,1.2,2.93,2.5,3.88,3.88.15.24.3.49.43.75" fill="none" stroke="#fff" stroke-linecap="round" stroke-linejoin="round" stroke-width=".5"/>
  <path d="M214.96,161.3c-.11,0-.23,0-.34,0-1.75,0-3.5.02-5.25.07" fill="none" stroke="#fff" stroke-linecap="round" stroke-linejoin="round" stroke-width=".5"/>
  <path d="M237.63,198.7h.42" fill="none" stroke="#fff" stroke-linecap="round" stroke-linejoin="round" stroke-width=".5"/>
  <path d="M209.48,305.82c1.9.04,3.8.1,5.7.19.91.04,4.76.23,5.67.54.09.11.59.15.69.16.24.02.48.03.72.03h12.28c.93.04,1.87.08,2.8.12.19-4.51.19-9.01.2-13.52s.01-9.01.02-13.52c.02-9.01.03-18.03.04-27.04,0-9.01.02-18.03.02-27.04s0-18.03,0-27.04c0-11.8,0-23.6-.01-35.4" fill="none" stroke="#fff" stroke-linecap="round" stroke-linejoin="round" stroke-width=".5"/>
  <path d="M174.79,197.87c.61,1.25.71,3.67.71,6.14v102.54c-.01,1.55-1.26,2.82-2.81,2.83-.72-.29-3.59-.46-4.32-.5-1.45-.09-2.9-.15-4.35-.19" fill="none" stroke="#fff" stroke-linecap="round" stroke-linejoin="round" stroke-width=".5"/>
  <path d="M36.77,204.01h5.87" fill="none" stroke="#fff" stroke-linecap="round" stroke-linejoin="round" stroke-width=".5"/>
  <path d="M54.12,308.68c-1.45.05-2.9.11-4.35.19-.73.04-3.6.22-4.32.5-1.55-.01-2.8-1.28-2.81-2.83v-102.54c0-2.47.1-4.88.71-6.14" fill="none" stroke="#fff" stroke-linecap="round" stroke-linejoin="round" stroke-width=".5"/>
  <path d="M54.13,161.36c-1.75-.05-3.5-.07-5.25-.07-.11,0-.23,0-.34,0" fill="none" stroke="#fff" stroke-linecap="round" stroke-linejoin="round" stroke-width=".5"/>
  <path d="M25.88,163.3c0,11.8-.01,23.6-.01,35.4,0,9.01,0,18.03,0,27.04,0,9.01.01,18.03.02,27.04,0,9.01.02,18.03.04,27.04,0,4.51.02,9.01.02,13.52s0,9.01.2,13.52c.93-.04,1.87-.08,2.8-.12h12.28c.24,0,.48,0,.72-.03.1,0,.6-.06.69-.16.91-.31,4.76-.49,5.67-.54,1.9-.09,3.8-.15,5.7-.19" fill="none" stroke="#fff" stroke-linecap="round" stroke-linejoin="round" stroke-width=".5"/>
  <path d="M124.92,236.21v50.45c0,1.56-1.29,2.8-2.83,2.82" fill="none" stroke="#fff" stroke-linecap="round" stroke-linejoin="round" stroke-width=".5"/>
  <path d="M120.78,293.09c1.34.18,2.58-.16,3.56-.95.49-.4.91-.91,1.21-1.57s.47-1.45.46-2.26c-.15-17.38-.3-34.76-.45-52.13-.04-4.97-.14-9.94-.37-14.89-.11-2.47-.26-4.95-.45-7.41s-.44-4.93-.78-7.38-.76-4.87-1.34-7.24c-.58-2.37-1.33-4.7-2.41-6.86-1.08-2.16-2.49-4.16-4.41-5.63-.96-.74-2.05-1.34-3.21-1.74-1.17-.4-2.42-.61-3.67-.59-1.25.02-2.51.26-3.67.7-1.16.44-2.22,1.07-3.16,1.83-1.87,1.52-3.24,3.53-4.29,5.71-1.05,2.18-1.78,4.53-2.35,6.91-.57,2.38-.98,4.79-1.3,7.21-.32,2.42-.56,4.85-.75,7.29s-.33,4.88-.44,7.34c-.22,4.9-.32,9.83-.36,14.76-.15,17.38-.3,34.76-.45,52.13" fill="none" stroke="#fff" stroke-linecap="round" stroke-linejoin="round" stroke-width=".5"/>
  <path d="M100.16,287.94c-.74.12-1.47.26-2.2.47-.41.11-1.74.5-1.91,1.07-1.55-.01-2.83-1.26-2.83-2.82.05-.17.18-.3.3-.41.21-.18.45-.3.7-.42.36-.17.73-.29,1.11-.41.5-.15,1.01-.27,1.52-.38,1.34-.28,2.69-.46,4.04-.6,2.72-.28,5.44-.39,8.17-.39s5.45.11,8.17.39c1.36.14,2.71.32,4.04.6.51.11,1.02.23,1.52.38.38.11.75.24,1.11.41.25.11.48.24.7.42.13.11.25.24.3.41" fill="none" stroke="#fff" stroke-linecap="round" stroke-linejoin="round" stroke-width=".5"/>
  <path d="M93.22,286.66v-50.45c.04-4.85.13-9.7.34-14.53.1-2.41.24-4.82.42-7.23.18-2.4.4-4.8.71-7.19.3-2.39.69-4.77,1.22-7.13.54-2.36,1.22-4.69,2.22-6.87,1-2.18,2.3-4.21,4.12-5.75.91-.77,1.95-1.42,3.08-1.86,1.13-.45,2.36-.7,3.58-.71,1.23-.02,2.46.19,3.61.6,1.15.41,2.2,1.03,3.13,1.77,1.86,1.49,3.21,3.51,4.23,5.67,1.02,2.16,1.73,4.47,2.27,6.83.55,2.35.95,4.75,1.26,7.17.31,2.41.55,4.85.73,7.28.18,2.43.32,4.87.43,7.3.21,4.87.31,9.76.35,14.65" fill="none" stroke="#fff" stroke-linecap="round" stroke-linejoin="round" stroke-width=".5"/>
  <path d="M75.43,293.09c1.34.18,2.58-.16,3.56-.95.49-.4.91-.91,1.21-1.57s.47-1.45.46-2.26c-.15-17.38-.3-34.76-.45-52.13-.04-4.97-.14-9.94-.37-14.89-.11-2.47-.26-4.95-.45-7.41s-.44-4.93-.78-7.38-.76-4.87-1.34-7.24c-.58-2.37-1.33-4.7-2.41-6.86-1.08-2.16-2.49-4.16-4.41-5.63-.96-.74-2.05-1.34-3.21-1.74-1.17-.4-2.42-.61-3.67-.59-1.25.02-2.51.26-3.67.7-1.16.44-2.22,1.07-3.16,1.83-1.87,1.52-3.24,3.53-4.29,5.71-1.05,2.18-1.78,4.53-2.35,6.91-.57,2.38-.98,4.79-1.3,7.21-.32,2.42-.56,4.85-.75,7.29s-.33,4.88-.44,7.34c-.22,4.9-.32,9.83-.36,14.76-.15,17.38-.3,34.76-.45,52.13,0,.81.16,1.6.46,2.26.3.65.72,1.17,1.2,1.57.98.8,2.22,1.13,3.56.96" fill="none" stroke="#fff" stroke-linecap="round" stroke-linejoin="round" stroke-width=".5"/>
  <path d="M72.63,287.94c.74.12,1.47.26,2.2.47.41.11,1.74.5,1.91,1.07,1.55-.01,2.83-1.26,2.83-2.82v-50.45c-.04-4.89-.14-9.78-.35-14.65-.11-2.44-.24-4.87-.43-7.3-.18-2.43-.42-4.86-.73-7.28-.31-2.41-.71-4.81-1.26-7.17-.55-2.35-1.25-4.66-2.27-6.83s-2.37-4.18-4.23-5.67c-.93-.75-1.99-1.36-3.13-1.77-1.15-.41-2.38-.62-3.61-.6-1.23.02-2.45.27-3.58.71-1.13.45-2.17,1.09-3.08,1.86-1.82,1.54-3.12,3.57-4.12,5.75-1,2.18-1.68,4.51-2.22,6.87-.54,2.36-.92,4.74-1.22,7.13-.3,2.39-.53,4.79-.71,7.19-.18,2.4-.31,4.81-.42,7.23-.21,4.83-.3,9.67-.34,14.53" fill="none" stroke="#fff" stroke-linecap="round" stroke-linejoin="round" stroke-width=".5"/>
  <path d="M47.87,286.66c.05-.17.18-.3.3-.41.21-.18.45-.3.7-.42.36-.17.73-.29,1.11-.41.5-.15,1.01-.27,1.52-.38,1.34-.28,2.69-.46,4.04-.6,2.72-.28,5.44-.39,8.17-.39s5.45.11,8.17.39c1.36.14,2.71.32,4.04.6.51.11,1.02.23,1.52.38.38.11.75.24,1.11.41.25.11.48.24.7.42.13.11.25.24.3.41" fill="none" stroke="#fff" stroke-linecap="round" stroke-linejoin="round" stroke-width=".5"/>
  <path d="M145.51,287.94c-.74.12-1.47.26-2.2.47-.41.11-1.74.5-1.91,1.07" fill="none" stroke="#fff" stroke-linecap="round" stroke-linejoin="round" stroke-width=".5"/>
  <path d="M162.83,292.74c1.11.1,2.21.21,3.31.36,1.34.18,2.58-.16,3.56-.95.49-.4.91-.91,1.21-1.57s.47-1.45.46-2.26c-.15-17.38-.3-34.76-.45-52.13-.04-4.97-.14-9.94-.37-14.89-.11-2.47-.26-4.95-.45-7.41s-.44-4.93-.78-7.38-.76-4.87-1.34-7.24c-.58-2.37-1.33-4.7-2.41-6.86-1.08-2.16-2.49-4.16-4.41-5.63-.96-.74-2.05-1.34-3.21-1.74s-2.42-.61-3.67-.59c-1.25.02-2.51.26-3.67.7s-2.22,1.07-3.16,1.83c-1.87,1.52-3.24,3.53-4.29,5.71-1.05,2.18-1.78,4.53-2.35,6.91-.57,2.38-.98,4.79-1.3,7.21s-.56,4.85-.75,7.29c-.19,2.44-.33,4.88-.44,7.34-.22,4.9-.32,9.83-.36,14.76-.15,17.38-.3,34.76-.45,52.13" fill="none" stroke="#fff" stroke-linecap="round" stroke-linejoin="round" stroke-width=".5"/>
  <path d="M167.45,289.48c-.17-.57-1.5-.95-1.91-1.07-.72-.2-1.46-.35-2.2-.47" fill="none" stroke="#fff" stroke-linecap="round" stroke-linejoin="round" stroke-width=".5"/>
  <path d="M162.94,289.87l.4-1.93c.03-.14.1-.49-.04-.95-.07-.23-.19-.49-.39-.71-.21-.22-.5-.39-.84-.42-4.74-.47-10.54-.47-15.28,0-.69.07-1.09.66-1.24,1.13-.15.47-.07.81-.04.95.13.64.27,1.29.4,1.93,0,0,0,.02,0,.03.05.3.1,1.49.11,2.83.01,1.14.02,2.27.03,3.41,5.34.2,11.39.2,16.74,0,.01-1.14.02-2.27.03-3.41.01-1.34.06-2.53.11-2.83,0-.01,0-.02,0-.03Z" fill="none" stroke="#fff" stroke-linecap="round" stroke-linejoin="round" stroke-width=".5"/>
  <path d="M138.57,286.66c.05-.17.18-.3.3-.41.21-.18.45-.3.7-.42.36-.17.73-.29,1.11-.41.5-.15,1.01-.27,1.52-.38,1.34-.28,2.69-.46,4.04-.6,2.72-.28,5.44-.39,8.17-.39s5.45.11,8.17.39c1.36.14,2.71.32,4.04.6.51.11,1.02.23,1.52.38.38.11.75.24,1.11.41.25.11.48.24.7.42.13.11.25.24.3.41" fill="none" stroke="#fff" stroke-linecap="round" stroke-linejoin="round" stroke-width=".5"/>
  <path d="M170.28,236.21c-.04-4.89-.14-9.78-.35-14.65-.11-2.44-.24-4.87-.43-7.3-.18-2.43-.42-4.86-.73-7.28-.31-2.41-.71-4.81-1.26-7.17-.55-2.35-1.25-4.66-2.27-6.83s-2.37-4.18-4.23-5.67c-.93-.75-1.99-1.36-3.13-1.77-1.15-.41-2.38-.62-3.61-.6-1.23.02-2.45.27-3.58.71-1.13.45-2.17,1.09-3.08,1.86-1.82,1.54-3.12,3.57-4.12,5.75-1,2.18-1.68,4.51-2.22,6.87-.54,2.36-.92,4.74-1.22,7.13-.3,2.39-.53,4.79-.71,7.19-.18,2.4-.31,4.81-.42,7.23-.21,4.83-.3,9.67-.34,14.53" fill="none" stroke="#fff" stroke-linecap="round" stroke-linejoin="round" stroke-width=".5"/>
  <path d="M190.87,287.94c-.74.12-1.47.26-2.2.47-.41.11-1.74.5-1.91,1.07" fill="none" stroke="#fff" stroke-linecap="round" stroke-linejoin="round" stroke-width=".5"/>
  <path d="M208.7,287.94c.74.12,1.47.26,2.2.47.41.11,1.74.5,1.91,1.07,1.55-.01,2.83-1.26,2.83-2.82v-50.45c-.04-4.89-.14-9.78-.35-14.65-.11-2.44-.24-4.87-.43-7.3-.18-2.43-.42-4.86-.73-7.28-.31-2.41-.71-4.81-1.26-7.17-.55-2.35-1.25-4.66-2.27-6.83s-2.37-4.18-4.23-5.67c-.93-.75-1.99-1.36-3.13-1.77-1.15-.41-2.38-.62-3.61-.6-1.23.02-2.45.27-3.58.71-1.13.45-2.17,1.09-3.08,1.86-1.82,1.54-3.12,3.57-4.12,5.75-1,2.18-1.68,4.51-2.22,6.87-.54,2.36-.92,4.74-1.22,7.13-.3,2.39-.53,4.79-.71,7.19-.18,2.4-.31,4.81-.42,7.23-.21,4.83-.3,9.67-.34,14.53" fill="none" stroke="#fff" stroke-linecap="round" stroke-linejoin="round" stroke-width=".5"/>
  <path d="M157.97,74.81s-.01-.02-.02-.04" fill="#957c66"/>
  <path d="M160.11,75.9s0-.02-.01-.03" fill="#957c66"/>
  <path d="M151.16,74.48s0,.02.01.02" fill="#957c66"/>
  <g>
    <path d="M150.35,97.84s0-.02,0-.03c0-.01,0-.02,0-.03,0-.01,0-.02,0-.03,0-.01,0-.02,0-.03,0-.01,0-.02,0-.03,0-.01,0-.02,0-.03,0-.01,0-.02,0-.03,0,0,0-.02,0-.03,0,0,0-.02,0-.03,0,0,0-.02,0-.03,0,0,0-.02,0-.03,0,0,0-.02-.01-.03,0,0,0-.02-.01-.03,0,0,0-.02-.01-.03,0,0,0-.02-.01-.03,0,0,0-.02-.01-.03,0,0,0-.02-.01-.03,0,0,0-.02-.01-.03,0,0,0-.02-.01-.03,0,0-.01-.02-.01-.02,0,0-.01-.02-.02-.02,0,0-.01-.02-.02-.02,0,0-.01-.02-.02-.02,0,0-.01-.02-.02-.02,0,0-.01-.02-.02-.02,0,0-.01-.01-.02-.02,0,0-.01-.01-.02-.02,0,0-.01-.01-.02-.02,0,0-.01-.01-.02-.02,0,0-.01-.01-.02-.02,0,0-.01-.01-.02-.02,0,0-.01-.01-.02-.02,0,0-.02-.01-.02-.02,0,0-.02-.01-.02-.02,0,0-.02-.01-.02-.02,0,0-.02-.01-.02-.02,0,0-.02-.01-.03-.02,0,0-.02-.01-.03-.02,0,0-.02-.01-.03-.02,0,0-.02-.01-.03-.01,0,0-.02,0-.03-.01,0,0-.02,0-.03-.01,0,0-.02,0-.03-.01,0,0-.02,0-.03-.01-.01,0-.02,0-.03-.01-.01,0-.02,0-.03-.01-.01,0-.02,0-.03-.01-.01,0-.02,0-.03-.01-.01,0-.02,0-.03,0-.01,0-.02,0-.03,0-.01,0-.02,0-.03,0-.01,0-.02,0-.03,0-.01,0-.02,0-.04,0-.01,0-.02,0-.04,0-.01,0-.02,0-.04,0-.01,0-.02,0-.04,0-.01,0-.03,0-.04,0-.01,0-.03,0-.04,0-.01,0-.03,0-.04,0-.01,0-.03,0-.04,0-.01,0-.03,0-.04,0-.01,0-.03,0-.04,0-.01,0-.03,0-.04,0-.01,0-.03,0-.04,0-.01,0-.03,0-.04,0h-.04s-.02,0-.04,0c-.01,0-.02,0-.04,0-.01,0-.02,0-.04,0-.01,0-.02,0-.04,0-.01,0-.02,0-.03,0-.01,0-.02,0-.03,0-.01,0-.02,0-.03,0-.01,0-.02,0-.03,0-.01,0-.02,0-.03.01-.01,0-.02,0-.03.01-.01,0-.02,0-.03.01-.01,0-.02,0-.03.01,0,0-.02,0-.03.01,0,0-.02,0-.03.01,0,0-.02,0-.03.01,0,0-.02,0-.03.01,0,0-.02,0-.03.01,0,0-.02.01-.03.02,0,0-.02.01-.03.02,0,0-.02.01-.03.02,0,0-.02.01-.02.02,0,0-.02.01-.02.02,0,0-.02.01-.02.02,0,0-.02.01-.02.02,0,0-.01.01-.02.02,0,0-.01.01-.02.02,0,0-.01.01-.02.02,0,0-.01.01-.02.02,0,0-.01.01-.02.02,0,0-.01.01-.02.02,0,0-.01.01-.02.02,0,0-.01.02-.02.02,0,0-.01.02-.02.02,0,0-.01.02-.02.02,0,0-.01.02-.02.02,0,0-.01.02-.02.02,0,0,0,.02-.01.02,0,0,0,.02-.01.03,0,0,0,.02-.01.03,0,0,0,.02-.01.03,0,0,0,.02-.01.03,0,0,0,.02-.01.03,0,0,0,.02-.01.03,0,0,0,.02-.01.03,0,0,0,.02-.01.03,0,0,0,.02,0,.03,0,0,0,.02,0,.03,0,0,0,.02,0,.03,0,0,0,.02,0,.03,0,.01,0,.02,0,.03,0,.01,0,.02,0,.03,0,.01,0,.02,0,.03,0,.01,0,.02,0,.03,0,.01,0,.02,0,.03,0,.01,0,.02,0,.03,0,.01,0,.02,0,.03,0,.01,0,.02,0,.03,0,.02,0,.04,0,.07v1.78s0,.02,0,.03c0,.01,0,.02,0,.03,0,.01,0,.02,0,.03,0,.01,0,.02,0,.03,0,.01,0,.02,0,.03,0,.01,0,.02,0,.03,0,.01,0,.02,0,.03,0,.01,0,.02,0,.03,0,.01,0,.02,0,.03,0,0,0,.02,0,.03,0,0,0,.02,0,.03v.03s.02.02.02.03c0,0,0,.02,0,.03,0,0,0,.02.01.03,0,0,0,.02.01.03,0,0,0,.02.01.03,0,0,0,.02.01.03,0,0,0,.02.01.03,0,0,0,.02.01.03l.06.1s.01.02.02.02c0,0,.01.02.02.02,0,0,.01.02.02.02,0,0,.01.02.02.02l.02.02s.01.02.02.02c0,0,.01.02.02.02,0,0,.01.01.02.02,0,0,.01.01.02.02,0,0,.01.01.02.02,0,0,.01.01.02.02,0,0,.02.01.02.02,0,0,.02.01.02.02,0,0,.02.01.02.02,0,0,.02.01.02.02,0,0,.02.01.02.02,0,0,.02.01.03.02,0,0,.02.01.03.02,0,0,.02,0,.03.01,0,0,.02,0,.03.01,0,0,.02,0,.03.01,0,0,.02,0,.03.01,0,0,.02,0,.03.01.01,0,.02,0,.03.01.01,0,.02,0,.03.01.01,0,.02,0,.03,0,.01,0,.02,0,.03,0,.01,0,.02,0,.03,0,.01,0,.02,0,.03,0,.01,0,.02,0,.03,0,.01,0,.02,0,.03,0,.01,0,.02,0,.04,0,.01,0,.02,0,.04,0,.01,0,.02,0,.04,0,.01,0,.02,0,.04,0,.01,0,.03,0,.04,0,.01,0,.03,0,.04,0,.01,0,.03,0,.04,0,.03,0,.05,0,.08,0,.03,0,.05,0,.08,0,.01,0,.03,0,.04,0,.01,0,.03,0,.04,0,.01,0,.03,0,.04,0,.01,0,.02,0,.04,0,.01,0,.02,0,.04,0,.01,0,.02,0,.04,0,.01,0,.02,0,.04,0,.01,0,.02,0,.03,0,.01,0,.02,0,.03,0,.01,0,.02,0,.03,0,.01,0,.02,0,.03,0,.01,0,.02,0,.03,0,.01,0,.02,0,.03,0,.01,0,.02,0,.03-.01.01,0,.02,0,.03-.01,0,0,.02,0,.03-.01h.03s.02-.02.03-.03c0,0,.02,0,.03-.01,0,0,.02,0,.03-.01,0,0,.02-.01.03-.02,0,0,.02-.01.03-.02,0,0,.02-.01.02-.02,0,0,.02-.01.02-.02,0,0,.02-.01.02-.02,0,0,.02-.01.02-.02,0,0,.01-.01.02-.02,0,0,.01-.01.02-.02,0,0,.01-.01.02-.02,0,0,.01-.01.02-.02,0,0,.01-.01.02-.02,0,0,.01-.01.02-.02,0,0,.01-.02.02-.02,0,0,.01-.02.02-.02,0,0,.01-.02.02-.02,0,0,.01-.02.02-.02,0,0,.01-.02.02-.02,0,0,.01-.02.02-.02,0,0,.01-.02.02-.02,0,0,.01-.02.02-.03,0,0,0-.02.01-.03,0,0,0-.02.01-.03,0,0,0-.02.01-.03,0,0,0-.02.01-.03,0,0,0-.02.01-.03,0,0,0-.02.01-.03,0,0,0-.02.01-.03,0,0,0-.02.01-.03,0,0,0-.02.01-.03,0,0,0-.02,0-.03,0,0,0-.02,0-.03,0,0,0-.02,0-.03,0,0,0-.02,0-.03,0-.01,0-.02,0-.03,0-.01,0-.02,0-.03,0-.01,0-.02,0-.03,0-.01,0-.02,0-.03v-.03s.01-.04.02-.06c0-.02,0-.04,0-.07v-1.78s0-.04,0-.07c0-.01,0-.02,0-.03Z" fill="#fff"/>
    <path d="M142.66,97.37c.02-.34-.31-.65-.65-.6h-1.64v1.21h1.64c.34.05.67-.26.65-.6Z" fill="#fff"/>
    <path d="M142.12,99.6h-1.75v1.29h1.75c.36.03.7-.31.7-.65,0-.34-.34-.67-.7-.65Z" fill="#fff"/>
    <path d="M174.27,85.06c-.03-5.56-1.17-11.11-3.32-16.22-2.15-5.11-5.31-9.78-9.22-13.67-3.91-3.89-8.57-7-13.7-9.13-2.56-1.06-5.25-1.88-7.97-2.42-2.72-.54-5.49-.82-8.31-.82s-5.65.29-8.37.83-5.37,1.35-7.92,2.41c-2.55,1.06-5.01,2.37-7.31,3.91-2.3,1.53-4.44,3.28-6.39,5.23-3.91,3.89-7.07,8.58-9.22,13.7-2.15,5.12-3.28,10.67-3.31,16.24-.02,5.57,1.06,11.14,3.16,16.3,2.11,5.15,5.23,9.89,9.18,13.86,1.97,1.99,4.15,3.78,6.47,5.34,2.32,1.56,4.77,2.88,7.35,3.95,2.58,1.07,5.29,1.9,8.03,2.45,2.74.55,5.5.82,8.33.82,5.64,0,11.22-1.12,16.37-3.28,5.15-2.15,9.89-5.33,13.82-9.3,3.94-3.97,7.08-8.72,9.18-13.89,2.07-5.09,3.15-10.57,3.15-16.05,0-.09,0-.17,0-.26ZM108.22,102.54h-1.44c-.19,0-.37-.11-.44-.29-.39-.76-.78-1.51-1.18-2.27h-.97v2.27c0,.15-.14.28-.29.29h-1.39c-.15,0-.28-.14-.29-.29v-6.84c0-.15.14-.28.29-.29h2.87c.06,0,.11,0,.17,0,.06,0,.11,0,.17,0,.05,0,.11,0,.16.01.05,0,.11.01.16.02.05,0,.1.01.15.02.03,0,.05,0,.08.01.02,0,.05,0,.07.01.02,0,.05,0,.07.01.02,0,.05.01.07.02l.07.02s.05.01.07.02l.07.02s.04.01.07.02c.02,0,.04.01.07.02.02,0,.04.02.06.02.02,0,.04.02.06.02.02,0,.04.02.06.02.02,0,.04.02.06.03.02,0,.04.02.06.03.02,0,.04.02.06.03.02,0,.04.02.06.03.02.01.04.02.06.03.02.01.04.02.05.03.02.01.04.02.05.03.02.01.03.02.05.03.02.01.03.02.05.04.02.01.03.02.05.04.02.01.03.03.05.04.02.01.03.03.05.04.01.01.03.03.04.04.01.01.03.03.04.04.01.01.03.03.04.04.01.01.03.03.04.04.01.02.03.03.04.05.01.02.03.03.04.05.01.02.02.03.04.05.01.02.02.03.03.05.01.02.02.03.03.05.01.02.02.03.03.05.01.02.02.04.03.05,0,.02.02.04.03.05,0,.02.02.04.03.06,0,.02.02.04.03.06,0,.02.02.04.02.06,0,.02.02.04.02.06,0,.02.01.04.02.06,0,.02.01.04.02.06,0,.02.01.04.02.06,0,.02.01.04.02.06,0,.02.01.04.02.07,0,.02,0,.04.01.07,0,.02,0,.05.01.07,0,.02,0,.05.01.07,0,.02,0,.05,0,.07,0,.02,0,.05,0,.07,0,.02,0,.05,0,.07,0,.02,0,.05,0,.07,0,.03,0,.05,0,.08,0,.03,0,.05,0,.08,0,.03,0,.07,0,.1,0,.03,0,.06,0,.1,0,.03,0,.06,0,.09,0,.03,0,.06,0,.09,0,.03,0,.06-.01.09,0,.03,0,.06-.01.09,0,.03-.01.06-.02.09,0,.03-.01.06-.02.08,0,.01,0,.03-.01.04,0,.01,0,.03-.01.04,0,.01,0,.03-.01.04,0,.01,0,.03-.01.04,0,.01,0,.03-.01.04,0,.01,0,.03-.01.04,0,.01,0,.03-.01.04,0,.01-.01.02-.02.04,0,.01-.01.02-.02.04,0,.01-.01.02-.02.04,0,.01-.01.02-.02.04,0,.01-.01.02-.02.04,0,.01-.01.02-.02.03,0,.01-.01.02-.02.03,0,.01-.01.02-.02.03,0,.01-.01.02-.02.03,0,.01-.01.02-.02.03,0,.01-.01.02-.02.03,0,.01-.01.02-.02.03,0,.01-.01.02-.02.03,0,.01-.02.02-.02.03,0,.01-.02.02-.02.03,0,0-.02.02-.02.03,0,0-.02.02-.02.03,0,0-.02.02-.02.03,0,0-.02.02-.03.03,0,0-.02.02-.03.03,0,0-.02.02-.03.03,0,0-.02.02-.03.03,0,0-.02.02-.03.03,0,0-.02.02-.03.03,0,0-.02.02-.03.03,0,0-.02.02-.03.02-.01,0-.02.02-.03.02-.01,0-.02.02-.03.02-.01,0-.02.02-.03.02-.01,0-.02.02-.03.02-.01,0-.02.01-.03.02-.01,0-.02.01-.03.02-.01,0-.02.01-.03.02-.01,0-.02.01-.03.02-.01,0-.02.01-.03.02-.02.01-.05.03-.07.04-.02.01-.05.02-.07.04-.02.01-.05.02-.07.04.44.84.88,1.68,1.31,2.52.02.04.03.08.03.12,0,.12-.11.23-.23.23ZM115.17,102.25c0,.15-.14.28-.29.29h-5.02c-.15,0-.28-.14-.29-.29v-6.84c0-.15.14-.28.29-.29h4.93c.15,0,.28.14.29.29v1.12c0,.15-.14.28-.29.29h-3.26v1.14h3.03c.15,0,.28.14.29.29v1.12c0,.15-.14.28-.29.29h-3.03v1.19h3.35c.15,0,.28.14.29.29v1.12ZM107.13,90.44c-.06,0-.11,0-.17,0-.06,0-.11,0-.17,0-.06,0-.11,0-.17-.01-.06,0-.11-.01-.17-.02-.06,0-.11-.02-.17-.03-.05-.01-.11-.02-.16-.03-.05-.01-.11-.02-.16-.04-.05-.01-.11-.03-.16-.04-.05-.02-.11-.03-.16-.05-.05-.02-.11-.04-.16-.05l-.16-.06c-.05-.02-.1-.04-.15-.06-.05-.02-.1-.05-.15-.07-.05-.02-.1-.05-.15-.07-.05-.03-.1-.05-.15-.08l-.14-.08s-.09-.06-.14-.09c-.05-.03-.09-.06-.14-.09-.05-.03-.09-.07-.14-.1-.04-.03-.09-.07-.13-.1-.04-.04-.09-.07-.13-.11-.04-.04-.08-.07-.12-.11-.04-.04-.08-.08-.12-.12-.04-.04-.08-.08-.12-.12-.04-.04-.07-.08-.11-.12-.04-.04-.07-.09-.11-.13-.03-.04-.07-.09-.1-.13-.03-.05-.07-.09-.1-.14-.03-.05-.06-.09-.09-.14-.03-.05-.06-.09-.09-.14-.03-.05-.06-.1-.08-.14-.03-.05-.05-.1-.08-.15-.02-.05-.05-.1-.07-.15-.02-.05-.05-.1-.07-.15-.02-.05-.04-.1-.06-.15l-.06-.16c-.02-.05-.04-.11-.05-.16-.02-.05-.03-.11-.05-.16-.01-.05-.03-.11-.04-.16-.01-.05-.02-.11-.04-.16-.01-.05-.02-.11-.03-.16,0-.06-.02-.11-.03-.17,0-.06-.01-.11-.02-.17,0-.06,0-.11-.01-.17,0-.06,0-.11,0-.17,0-.06,0-.11,0-.17v-13.08c0-.06,0-.11,0-.17,0-.06,0-.11,0-.17,0-.06,0-.11.01-.17,0-.06.01-.11.02-.17,0-.06.02-.11.03-.17.01-.05.02-.11.03-.16.01-.05.02-.11.04-.16.01-.05.03-.11.04-.16.02-.05.03-.11.05-.16.02-.05.04-.11.05-.16.02-.05.04-.1.06-.16.02-.05.04-.1.06-.15.02-.05.05-.1.07-.15.02-.05.05-.1.07-.15.03-.05.05-.1.08-.15.03-.05.06-.1.08-.14.03-.05.06-.09.09-.14.03-.05.06-.09.09-.14.03-.05.07-.09.1-.14.03-.04.07-.09.1-.13.04-.04.07-.09.11-.13.04-.04.07-.08.11-.12.04-.04.08-.08.12-.12.04-.04.08-.08.12-.12.04-.04.08-.07.12-.11.04-.04.09-.07.13-.11.04-.03.09-.07.13-.1.05-.03.09-.07.14-.1.05-.03.09-.06.14-.09.05-.03.09-.06.14-.09l.14-.08s.1-.05.15-.08c.05-.02.1-.05.15-.07.05-.02.1-.05.15-.07.05-.02.1-.04.15-.06.05-.02.1-.04.16-.06.05-.02.11-.04.16-.05.05-.02.11-.03.16-.05.05-.01.11-.03.16-.04.05-.01.11-.02.16-.04.05-.01.11-.02.16-.03.06,0,.11-.02.17-.03.06,0,.11-.01.17-.02.06,0,.11,0,.17-.01.06,0,.11,0,.17,0,.06,0,.11,0,.17,0,8.2,0,16.41,0,24.62,0h6.39s.07.01.09.04c1.05,1.05,2.09,2.09,3.14,3.14.02.02.04.06.04.09s-.01.07-.04.09c-1.05,1.05-2.09,2.09-3.14,3.14-.02.02-.06.04-.09.04-2.13,0-4.26,0-6.4,0-7.39,0-14.78,0-22.17,0,0,0-.02,0-.03,0,0,0-.02,0-.03,0,0,0-.02,0-.03,0,0,0-.02,0-.03,0,0,0-.02,0-.03,0,0,0-.02,0-.03,0,0,0-.02,0-.03,0,0,0-.02,0-.03,0,0,0-.02,0-.03,0,0,0-.02,0-.03,0,0,0-.02,0-.03,0,0,0-.02,0-.03.01,0,0-.02,0-.03.01,0,0-.02,0-.03.01,0,0-.02,0-.02.01,0,0-.02,0-.02.01,0,0-.02,0-.02.01,0,0-.02.01-.02.02l-.02.02s-.01.01-.02.02c0,0-.01.01-.02.02,0,0-.01.01-.02.02,0,0-.01.01-.02.02,0,0-.01.01-.02.02,0,0-.01.01-.02.02,0,0-.01.01-.02.02,0,0-.01.01-.02.02,0,0-.01.02-.02.02,0,0-.01.02-.02.02,0,0,0,.02-.01.02,0,0,0,.02-.01.02,0,0,0,.02-.01.02,0,0,0,.02-.01.03,0,0,0,.02-.01.03,0,0,0,.02-.01.03,0,0,0,.02,0,.03,0,0,0,.02,0,.03,0,0,0,.02,0,.03,0,0,0,.02,0,.03,0,0,0,.02,0,.03,0,0,0,.02,0,.03,0,0,0,.02,0,.03,0,0,0,.02,0,.03,0,0,0,.02,0,.03,0,0,0,.02,0,.03,0,0,0,.02,0,.03v8.18s0,.02,0,.03c0,0,0,.02,0,.03,0,0,0,.02,0,.03,0,0,0,.02,0,.03,0,0,0,.02,0,.03,0,0,0,.02,0,.03,0,0,0,.02,0,.03,0,0,0,.02,0,.03,0,0,0,.02,0,.03,0,0,0,.02,0,.03,0,0,0,.02,0,.03,0,0,0,.02.01.03,0,0,0,.02.01.03,0,0,0,.02.01.02,0,0,0,.02.01.02,0,0,0,.02.01.02,0,0,0,.02.01.02,0,0,.01.02.02.02l.02.02s.01.01.02.02c0,0,.01.01.02.02,0,0,.01.01.02.02,0,0,.01.01.02.02,0,0,.01.01.02.02,0,0,.01.01.02.02,0,0,.01.01.02.02,0,0,.01.01.02.02l.02.02s.02.01.02.02c0,0,.02.01.02.02,0,0,.02,0,.02.01,0,0,.02,0,.02.01,0,0,.02,0,.03.01,0,0,.02,0,.03.01,0,0,.02,0,.03.01,0,0,.02,0,.03,0,0,0,.02,0,.03,0,0,0,.02,0,.03,0,0,0,.02,0,.03,0,0,0,.02,0,.03,0,0,0,.02,0,.03,0,0,0,.02,0,.03,0,0,0,.02,0,.03,0,0,0,.02,0,.03,0,0,0,.02,0,.03,0,0,0,.02,0,.03,0h8.68c.07,0,.12.07.12.13,0,.03,0,.07-.03.09l-2.95,2.95s-.05.14,0,.18c.98.98,1.97,1.97,2.95,2.96.02.02.03.06.03.09,0,.07-.06.13-.12.13h-11.13ZM122.72,99.73s0,.06,0,.08c0,.03,0,.06,0,.08,0,.03,0,.05,0,.08,0,.03,0,.05,0,.08,0,.03,0,.05,0,.08,0,.03,0,.05-.01.08,0,.03,0,.05-.01.08,0,.03,0,.05-.01.08,0,.03-.01.05-.02.08,0,.02-.01.05-.02.07,0,.02-.01.05-.02.07,0,.02-.02.05-.02.07,0,.02-.02.05-.02.07,0,.02-.02.05-.03.07,0,.02-.02.05-.03.07-.01.02-.02.05-.03.07-.01.02-.02.04-.03.07-.01.02-.02.04-.03.07-.01.02-.02.04-.04.06-.01.02-.02.04-.04.06-.01.02-.03.04-.04.06-.01.02-.03.04-.04.06-.01.02-.03.04-.04.06-.01.02-.03.04-.04.06-.01.02-.03.04-.04.06-.02.02-.03.04-.05.06l-.05.05s-.03.04-.05.05c-.02.02-.03.03-.05.05-.02.02-.03.03-.05.05-.02.02-.04.03-.05.05-.02.02-.04.03-.05.05-.02.02-.04.03-.06.05-.02.02-.04.03-.06.04-.02.01-.04.03-.06.04-.02.01-.04.03-.06.04-.02.01-.04.03-.06.04-.02.01-.04.03-.06.04-.02.01-.04.03-.06.04-.02.01-.04.02-.06.04-.02.01-.04.02-.07.04-.02.01-.04.02-.07.03-.02.01-.05.02-.07.03-.02.01-.05.02-.07.03-.02.01-.05.02-.07.03-.02,0-.05.02-.07.03-.02,0-.05.02-.07.03-.02,0-.05.02-.07.03-.03,0-.05.02-.08.02-.03,0-.05.02-.08.02-.03,0-.05.01-.08.02-.03,0-.05.01-.08.02-.03,0-.05.01-.08.02-.03,0-.05.01-.08.02-.03,0-.05.01-.08.02-.03,0-.05,0-.08.01-.03,0-.05,0-.08.01-.03,0-.05,0-.08.01-.03,0-.06,0-.08,0-.03,0-.06,0-.08,0-.03,0-.06,0-.08,0-.03,0-.06,0-.09,0-.03,0-.06,0-.09,0-.03,0-.06,0-.09,0-.03,0-.06,0-.09,0-.03,0-.06,0-.09,0-.03,0-.06,0-.09,0-.03,0-.06,0-.09,0-.03,0-.06,0-.09,0-.03,0-.06,0-.09,0-.03,0-.06,0-.09-.01-.03,0-.06,0-.09-.01-.03,0-.06-.01-.08-.02-.03,0-.06-.01-.08-.02-.03,0-.05-.01-.08-.02-.03,0-.05-.01-.08-.02-.03,0-.05-.01-.08-.02-.03,0-.05-.02-.08-.02-.03,0-.05-.02-.08-.03-.03,0-.05-.02-.08-.03-.02,0-.05-.02-.07-.03-.02-.01-.05-.02-.07-.03-.02-.01-.05-.02-.07-.03-.02-.01-.05-.02-.07-.03-.02-.01-.05-.02-.07-.03-.02-.01-.04-.02-.07-.04-.02-.01-.04-.02-.07-.04-.02-.01-.04-.03-.06-.04-.02-.01-.04-.03-.06-.04-.02-.01-.04-.03-.06-.04-.02-.01-.04-.03-.06-.04-.02-.01-.04-.03-.06-.04-.02-.01-.04-.03-.06-.04-.02-.02-.04-.03-.06-.05-.02-.02-.04-.03-.06-.05l-.05-.05s-.03-.03-.05-.05c-.02-.02-.03-.03-.05-.05-.02-.02-.03-.03-.05-.05-.02-.02-.03-.04-.05-.05-.02-.02-.03-.04-.05-.05-.01-.02-.03-.04-.04-.05-.01-.02-.03-.04-.04-.06-.01-.02-.03-.04-.04-.06-.01-.02-.03-.04-.04-.06-.01-.02-.03-.04-.04-.06-.01-.02-.02-.04-.04-.06-.01-.02-.02-.04-.04-.06-.01-.02-.02-.04-.03-.06-.01-.02-.02-.04-.03-.06-.01-.02-.02-.04-.03-.06,0-.02-.02-.04-.03-.06,0-.02-.02-.04-.03-.07,0-.02-.02-.04-.03-.07,0-.02-.02-.04-.02-.07,0-.02-.02-.04-.02-.07,0-.02-.01-.05-.02-.07,0-.02-.01-.05-.02-.07,0-.02-.01-.05-.02-.07,0-.02-.01-.05-.02-.07,0-.02-.01-.05-.02-.07,0-.02,0-.05-.01-.07,0-.02,0-.05-.01-.07,0-.02,0-.05-.01-.07,0-.02,0-.05,0-.07,0-.02,0-.05,0-.07,0-.02,0-.05,0-.07,0-.02,0-.05,0-.07,0-.15-.01-.3-.02-.45,0-.16,0-.32,0-.48,0-.16,0-.32,0-.49,0-.16.01-.31.02-.47,0-.02,0-.05,0-.07,0-.02,0-.05,0-.07,0-.02,0-.05,0-.07,0-.02,0-.05,0-.07,0-.02,0-.05.01-.07,0-.02,0-.05.01-.07,0-.02,0-.05.01-.07,0-.02.01-.05.02-.07,0-.02.01-.05.02-.07,0-.02.01-.05.02-.07,0-.02.01-.05.02-.07,0-.02.01-.05.02-.07,0-.02.02-.04.02-.07,0-.02.02-.04.03-.07,0-.02.02-.04.03-.07,0-.02.02-.04.03-.07,0-.02.02-.04.03-.07.01-.02.02-.04.03-.06.01-.02.02-.04.03-.06.01-.02.02-.04.03-.06.01-.02.02-.04.04-.06.01-.02.02-.04.04-.06.01-.02.03-.04.04-.06.01-.02.03-.04.04-.06.01-.02.03-.04.04-.06.01-.02.03-.04.04-.06.01-.02.03-.04.04-.05.02-.02.03-.04.05-.05.02-.02.03-.04.05-.05.02-.02.03-.03.05-.05.02-.02.03-.03.05-.05.02-.02.03-.03.05-.05.02-.02.04-.03.05-.05.02-.02.04-.03.05-.05.02-.02.04-.03.06-.05.02-.01.04-.03.06-.04.02-.01.04-.03.06-.04.02-.01.04-.03.06-.04.02-.01.04-.03.06-.04.02-.01.04-.03.06-.04.02-.01.04-.03.06-.04.02-.01.04-.02.07-.04.02-.01.04-.02.07-.04.02-.01.05-.02.07-.03.02-.01.05-.02.07-.03.02-.01.05-.02.07-.03.02-.01.05-.02.07-.03.02,0,.05-.02.07-.03.03,0,.05-.02.08-.03.03,0,.05-.02.08-.03.03,0,.05-.02.08-.02.03,0,.05-.01.08-.02.03,0,.05-.01.08-.02.03,0,.05-.01.08-.02.03,0,.06-.01.08-.02.03,0,.06-.01.08-.02.03,0,.06,0,.09-.01.03,0,.06,0,.09-.01.03,0,.06,0,.09,0,.03,0,.06,0,.09,0,.03,0,.06,0,.09,0,.03,0,.06,0,.09,0,.03,0,.06,0,.09,0,.03,0,.06,0,.09,0,.03,0,.06,0,.09,0,.03,0,.06,0,.09,0,.03,0,.06,0,.09,0,.03,0,.06,0,.09,0,.03,0,.06,0,.09,0,.03,0,.06,0,.09,0,.03,0,.06,0,.09.01.03,0,.06,0,.08.01.03,0,.06,0,.08.01.03,0,.05.01.08.02.03,0,.05.01.08.02.03,0,.05.01.08.02.03,0,.05.01.08.02.03,0,.05.02.08.02.03,0,.05.02.08.02.02,0,.05.02.07.03.05.02.1.04.15.06.02,0,.05.02.07.03.02.01.05.02.07.03.02.01.05.02.07.03.02.01.04.02.07.03.02.01.04.02.07.03.02.01.04.02.06.03.02.01.04.02.06.03.02.01.04.02.06.04.02.01.04.02.06.04.02.01.04.03.06.04.02.01.04.03.06.04.02.01.04.03.06.04.02.01.04.03.05.04.02.01.03.03.05.04.02.01.03.03.05.04.02.01.03.03.05.04.02.01.03.03.05.04.02.01.03.03.05.04.02.01.03.03.05.04.01.01.03.03.04.04.01.02.03.03.04.04.01.02.03.03.04.05.01.02.03.03.04.05.01.02.03.03.04.05.01.02.02.03.04.05.01.02.02.03.04.05.01.02.02.03.03.05.01.02.02.03.03.05.01.02.02.03.03.05.01.02.02.03.03.05,0,.02.02.03.03.05,0,.02.02.03.03.05,0,.02.02.03.03.05,0,.02.02.03.02.05,0,.02.01.03.02.05,0,.02.01.03.02.05,0,.02.01.03.02.05,0,.02.01.03.02.05,0,.02.01.03.02.05,0,.02,0,.03.01.05,0,.02,0,.03.01.05,0,.02,0,.03.01.05,0,.02,0,.03,0,.05,0,.02,0,.03,0,.05,0,0,0,.02,0,.02,0,0,0,.02,0,.02,0,0,0,.02,0,.02,0,0,0,.02,0,.02,0,.12-.11.24-.23.23h-1.41c-.18-.02-.34-.13-.42-.29-.27-.36-.73-.56-1.18-.51-.69-.07-1.35.54-1.33,1.23,0,.01,0,.02,0,.04,0,.01,0,.03,0,.04,0,.01,0,.03,0,.04,0,.02,0,.03,0,.05,0,.03,0,.07,0,.1,0,.04,0,.08,0,.12,0,.17,0,.34,0,.5,0,.09,0,.17,0,.26,0,.08,0,.17,0,.25,0,.13.01.26.02.39,0,.02,0,.04,0,.06,0,.02,0,.04,0,.06,0,.02,0,.04,0,.06,0,.02,0,.04.01.06,0,.02,0,.04.01.06,0,.02.01.04.02.06,0,.02.01.04.02.06,0,.02.01.04.02.06,0,0,0,.02.01.03,0,0,0,.02.01.03,0,0,0,.02.01.03,0,0,0,.02.01.03,0,0,0,.02.01.03,0,0,0,.02.01.03,0,0,0,.02.01.03,0,0,0,.02.01.02,0,0,0,.02.01.02,0,0,.01.02.02.02,0,0,.01.02.02.02,0,0,.01.02.02.02,0,0,.01.02.02.02,0,0,.01.01.02.02,0,0,.01.01.02.02,0,0,.01.01.02.02,0,0,.01.01.02.02,0,0,.01.01.02.02,0,0,.01.01.02.02,0,0,.01.01.02.02,0,0,.02.01.02.02,0,0,.02.01.02.02,0,0,.02.01.02.02,0,0,.02.01.02.02,0,0,.02.01.03.02,0,0,.02.01.03.02,0,0,.02.01.03.02,0,0,.02.01.03.02,0,0,.02,0,.03.01,0,0,.02,0,.03.01.01,0,.02,0,.03.01.01,0,.02,0,.03.01.01,0,.02,0,.03.01.01,0,.02,0,.03.01.01,0,.02,0,.03.01.01,0,.02,0,.03,0,.01,0,.02,0,.03,0,.01,0,.02,0,.04,0,.01,0,.02,0,.04,0,.01,0,.02,0,.04,0,.01,0,.03,0,.04,0,.01,0,.03,0,.04,0,.01,0,.03,0,.04,0,.01,0,.03,0,.04,0,.01,0,.03,0,.04,0,.01,0,.03,0,.04,0,.01,0,.03,0,.04,0,.01,0,.03,0,.04,0,.02,0,.05,0,.07,0,.02,0,.04,0,.07,0,.02,0,.04,0,.07,0,.02,0,.04,0,.07,0,.02,0,.04,0,.06,0,.02,0,.04,0,.06-.01.02,0,.04,0,.06-.01.02,0,.04,0,.06-.01.01,0,.02,0,.03,0,0,0,.02,0,.03,0,0,0,.02,0,.03,0,0,0,.02,0,.03-.01,0,0,.02,0,.03-.01,0,0,.02,0,.03-.01,0,0,.02,0,.03-.01,0,0,.02,0,.03-.01,0,0,.02,0,.03-.01,0,0,.02,0,.03-.01,0,0,.02,0,.03-.01,0,0,.02,0,.02-.01,0,0,.02-.01.02-.02,0,0,.02-.01.02-.02,0,0,.02-.01.02-.02,0,0,.02-.01.02-.02,0,0,.01-.01.02-.02,0,0,.01-.01.02-.02,0,0,.01-.01.02-.02,0,0,.01-.01.02-.02,0,0,.01-.01.02-.02,0,0,.01-.01.02-.02,0,0,.01-.01.02-.02,0,0,.01-.01.02-.02,0,0,.01-.02.02-.02,0,0,.01-.02.02-.02,0,0,.01-.02.02-.02,0,0,.01-.02.02-.02,0,0,.01-.02.02-.03,0,0,0-.02.01-.03,0,0,0-.02.01-.03,0,0,0-.02.01-.03,0,0,0-.02.01-.03,0,0,0-.02.01-.03,0,0,0-.02.01-.03,0-.01,0-.02.01-.03,0-.01,0-.02,0-.03,0-.01,0-.02,0-.03,0-.01,0-.02,0-.03,0-.01,0-.02,0-.03,0-.01,0-.02,0-.03,0-.01,0-.02,0-.03,0-.01,0-.02,0-.04,0-.01,0-.02,0-.04,0-.01,0-.02,0-.04,0-.01,0-.03,0-.04,0-.01,0-.03,0-.04,0-.01,0-.03,0-.04h-.89c-.15,0-.28-.14-.29-.29v-1.12c0-.15.14-.28.29-.29h2.56c.15,0,.28.14.29.29v1.36ZM129.51,102.25c0,.15-.14.28-.29.29h-5.02c-.15,0-.28-.14-.29-.29v-6.84c0-.15.14-.28.29-.29h4.93c.15,0,.28.14.29.29v1.12c0,.15-.14.28-.29.29h-3.26v1.14h3.03c.15,0,.28.14.29.29v1.12c0,.15-.14.28-.29.29h-3.03v1.19h3.35c.15,0,.28.14.29.29v1.12ZM136.93,102.25c0,.15-.14.28-.29.29h-1.1c-.17,0-.34-.1-.43-.24-.81-1.21-1.62-2.41-2.43-3.62v3.58c0,.15-.14.28-.29.29h-1.39c-.15,0-.28-.14-.29-.29v-6.84c0-.15.14-.28.29-.29h1.1c.17,0,.34.1.43.24.81,1.21,1.62,2.41,2.43,3.62v-3.58c0-.15.14-.28.29-.29h1.39c.15,0,.28.14.29.29v6.84ZM144.78,100.29s0,.04,0,.05c0,.02,0,.04,0,.05,0,.02,0,.04,0,.05,0,.02,0,.04,0,.05,0,.02,0,.04,0,.05,0,.02,0,.04,0,.05,0,.02,0,.04,0,.05,0,.02,0,.04,0,.05,0,.02,0,.04,0,.05,0,.02,0,.03-.01.05,0,.02,0,.03-.01.05,0,.02,0,.03-.01.05,0,.02,0,.03-.01.05,0,.02,0,.03-.01.05,0,.02-.01.03-.02.05,0,.02-.01.03-.02.05,0,.02-.01.03-.02.05,0,.02-.01.03-.02.05,0,.02-.01.03-.02.05,0,.02-.01.03-.02.05,0,.02-.02.03-.02.05,0,.02-.02.03-.02.05,0,.02-.02.03-.03.05,0,.02-.02.03-.03.05,0,.02-.02.03-.03.04,0,.01-.02.03-.03.04-.01.01-.02.03-.03.04-.01.01-.02.03-.03.04-.01.01-.02.03-.03.04-.01.01-.02.03-.03.04-.01.01-.02.03-.04.04-.01.01-.02.03-.04.04-.01.01-.03.03-.04.04-.01.01-.03.03-.04.04-.01.01-.03.02-.04.04-.01.01-.03.02-.04.04-.01.01-.03.02-.04.03-.02.01-.03.02-.05.03-.02.01-.03.02-.05.03-.02.01-.03.02-.05.03-.02.01-.03.02-.05.03l-.05.03s-.03.02-.05.03c-.02,0-.04.02-.05.03-.02,0-.04.02-.05.03-.02,0-.04.02-.06.03-.02,0-.04.02-.06.02-.02,0-.04.02-.06.02-.02,0-.04.01-.06.02-.02,0-.04.01-.06.02-.02,0-.04.01-.06.02-.02,0-.04.01-.07.02-.02,0-.04.01-.07.02-.02,0-.05,0-.07.01-.02,0-.05,0-.07.01-.02,0-.05,0-.07.01-.02,0-.05,0-.07.01-.03,0-.05,0-.08,0-.03,0-.05,0-.08,0-.03,0-.05,0-.08,0-.03,0-.05,0-.08,0-.03,0-.05,0-.08,0-.03,0-.06,0-.08,0h-3.63c-.15,0-.28-.14-.29-.29v-6.84c0-.15.14-.28.29-.29h3.41s.06,0,.09,0c.03,0,.06,0,.09,0,.03,0,.06,0,.08,0,.03,0,.06,0,.08,0,.03,0,.05,0,.08,0,.03,0,.05,0,.08,0,.03,0,.05,0,.08,0,.03,0,.05,0,.08.01.02,0,.05,0,.07.01.02,0,.05,0,.07.01.02,0,.05.01.07.02.02,0,.05.01.07.02.02,0,.04.01.07.02.02,0,.04.01.07.02.02,0,.04.01.06.02.02,0,.04.02.06.02.02,0,.04.02.06.03.02,0,.04.02.06.03.02,0,.04.02.06.03.02,0,.04.02.06.03.02,0,.04.02.05.03.02,0,.04.02.05.03.02.01.03.02.05.03.02.01.03.02.05.03.02.01.03.02.05.03.02.01.03.02.05.03.01.01.03.02.04.03.01.01.03.02.04.03.01.01.03.02.04.04.01.01.03.02.04.04.01.01.03.03.04.04.01.01.02.03.04.04.01.01.02.03.04.04.01.01.02.03.03.04.01.01.02.03.03.04.01.01.02.03.03.04.01.01.02.03.03.04,0,.01.02.03.03.04,0,.01.02.03.03.04,0,.01.02.03.03.04,0,.01.02.03.03.04,0,.02.02.03.02.05,0,.02.02.03.02.05,0,.02.01.03.02.05,0,.02.01.03.02.05,0,.02.01.03.02.05,0,.02.01.03.02.05,0,.02.01.03.02.05,0,.02.01.03.02.05,0,.02,0,.03.01.05,0,.02,0,.03.01.05,0,.02,0,.03.01.05,0,.02,0,.03.01.05,0,.02,0,.03.01.05,0,.02,0,.03,0,.05,0,.02,0,.03,0,.05,0,.02,0,.03,0,.05,0,.02,0,.03,0,.05,0,.02,0,.03,0,.05,0,.02,0,.03,0,.05,0,.02,0,.03,0,.05,0,.02,0,.03,0,.05,0,.02,0,.03,0,.05,0,.02,0,.03,0,.05,0,.03,0,.05,0,.08,0,.02,0,.05,0,.07,0,.02,0,.05,0,.07,0,.01,0,.02,0,.03,0,.01,0,.02,0,.03,0,.01,0,.02,0,.03,0,.01,0,.02,0,.03,0,.01,0,.02,0,.03,0,.01,0,.02,0,.03,0,.01,0,.02,0,.03,0,.01,0,.02,0,.03,0,0,0,.02,0,.03,0,0,0,.02,0,.03,0,.02-.01.04-.02.06,0,.02-.01.04-.02.05,0,.02-.01.03-.02.05,0,.02-.01.03-.02.05,0,.02-.01.03-.02.05,0,.02-.01.03-.02.05,0,.01-.02.03-.02.04,0,0,0,.01-.01.02,0,0,0,.01-.01.02,0,.01-.02.03-.02.04,0,.01-.02.03-.02.04,0,.01-.02.02-.02.04,0,.01-.02.02-.02.03,0,.01-.02.02-.02.03,0,0,0,.01-.01.02,0,0,0,0-.01.01,0,0,0,0-.01.01,0,0,0,0-.01.01,0,0,0,0-.01.01,0,0,0,0-.01.01-.03.03-.06.06-.09.09-.01.01-.03.02-.04.04-.01,0-.02.02-.03.03.02.01.03.02.05.04.02.01.03.02.05.04.02.01.03.03.05.04.01.01.03.03.04.04.01.01.03.03.04.04.01.01.03.03.04.04.01.01.03.03.04.04.01.01.02.03.04.04,0,0,.01.01.02.02,0,0,.01.01.02.02,0,0,.01.01.02.02,0,0,.01.01.02.02,0,0,.01.01.02.02,0,0,.01.01.02.02,0,0,0,.01.01.02,0,0,0,.01.01.02,0,0,0,.01.01.02,0,0,0,.01.01.02,0,0,0,.02.01.02,0,0,0,.02.01.02,0,0,0,.02.01.02,0,0,0,.02.01.02,0,0,0,.02.01.02,0,0,0,.02.01.02,0,.02.01.03.02.05,0,.02.01.03.02.05,0,.02.01.03.02.05,0,.02.01.03.02.05,0,.02,0,.03.01.05,0,.02,0,.04.01.05,0,.02,0,.04.01.05,0,.02,0,.04.01.06,0,.02,0,.04,0,.06,0,.02,0,.04,0,.06,0,.02,0,.04,0,.06,0,.02,0,.04,0,.06,0,.02,0,.04,0,.06,0,.02,0,.04,0,.06,0,.02,0,.04,0,.06,0,.02,0,.04,0,.07,0,.02,0,.04,0,.05ZM152.34,99.32c0,.15-.01.3-.02.45,0,.02,0,.05,0,.07,0,.02,0,.05,0,.07,0,.02,0,.05,0,.07,0,.02,0,.05,0,.07,0,.02,0,.05-.01.07,0,.02,0,.05-.01.07,0,.02,0,.05-.01.07,0,.02-.01.05-.02.07,0,.02-.01.05-.02.07,0,.02-.01.05-.02.07,0,.02-.01.05-.02.07,0,.02-.01.05-.02.07,0,.02-.02.04-.02.07,0,.02-.02.04-.02.07,0,.02-.02.04-.03.07,0,.02-.02.04-.03.07,0,.02-.02.04-.03.06-.01.02-.02.04-.03.06-.01.02-.02.04-.03.06-.01.02-.02.04-.03.06-.01.02-.02.04-.04.06-.01.02-.02.04-.04.06l-.04.06s-.03.04-.04.06c-.01.02-.03.04-.04.06-.01.02-.03.04-.04.06l-.04.05s-.03.04-.05.05c-.02.02-.03.04-.05.05-.02.02-.03.03-.05.05-.02.02-.03.03-.05.05-.02.02-.03.03-.05.05-.02.02-.04.03-.05.05-.02.02-.04.03-.05.05-.02.02-.04.03-.06.05-.02.01-.04.03-.06.04-.02.01-.04.03-.06.04-.02.01-.04.03-.06.04-.02.01-.04.03-.06.04-.02.01-.04.03-.06.04-.02.01-.04.03-.06.04-.02.01-.04.02-.07.04-.02.01-.04.02-.07.04-.02.01-.05.02-.07.03-.02.01-.05.02-.07.03-.02.01-.05.02-.07.03-.02,0-.05.02-.07.03-.02,0-.05.02-.07.03-.03,0-.05.02-.08.03-.03,0-.05.02-.08.03-.03,0-.05.02-.08.02-.03,0-.05.01-.08.02-.03,0-.05.01-.08.02-.03,0-.06.01-.08.02-.03,0-.06.01-.08.02-.03,0-.06,0-.09.01-.03,0-.06,0-.09.01-.03,0-.06,0-.09.01-.03,0-.06,0-.09,0-.03,0-.06,0-.09,0-.03,0-.06,0-.09,0-.03,0-.06,0-.09,0-.03,0-.06,0-.09,0-.03,0-.06,0-.1,0-.03,0-.06,0-.1,0-.03,0-.06,0-.1,0-.03,0-.06,0-.09,0-.03,0-.06,0-.09,0-.03,0-.06,0-.09,0-.03,0-.06,0-.09,0-.03,0-.06,0-.09-.01-.03,0-.06,0-.09-.01-.03,0-.06,0-.09-.01-.03,0-.06-.01-.08-.02-.03,0-.06-.01-.08-.02-.03,0-.05-.01-.08-.02-.03,0-.05-.01-.08-.02-.03,0-.05-.02-.08-.02-.03,0-.05-.02-.08-.03-.03,0-.05-.02-.08-.03-.02,0-.05-.02-.07-.03-.02,0-.05-.02-.07-.03-.02-.01-.05-.02-.07-.03l-.07-.03s-.05-.02-.07-.03c-.02-.01-.04-.02-.07-.04-.02-.01-.04-.02-.07-.04-.02-.01-.04-.03-.06-.04-.02-.01-.04-.03-.06-.04-.02-.01-.04-.03-.06-.04-.02-.01-.04-.03-.06-.04-.02-.01-.04-.03-.06-.04-.02-.01-.04-.03-.06-.04-.02-.02-.04-.03-.06-.05-.02-.02-.04-.03-.05-.05-.02-.02-.04-.03-.05-.05-.02-.02-.03-.03-.05-.05-.02-.02-.03-.03-.05-.05-.02-.02-.03-.03-.05-.05-.02-.02-.03-.04-.05-.05-.02-.02-.03-.04-.05-.05l-.04-.05s-.03-.04-.04-.06c-.01-.02-.03-.04-.04-.06-.01-.02-.03-.04-.04-.06l-.04-.06s-.02-.04-.04-.06c-.01-.02-.02-.04-.04-.06-.01-.02-.02-.04-.03-.06-.01-.02-.02-.04-.03-.06-.01-.02-.02-.04-.03-.06,0-.02-.02-.04-.03-.06,0-.02-.02-.04-.03-.07,0-.02-.02-.04-.03-.07,0-.02-.02-.04-.02-.07,0-.02-.02-.05-.02-.07,0-.02-.01-.05-.02-.07,0-.02-.01-.05-.02-.07,0-.02-.01-.05-.02-.07,0-.02-.01-.05-.02-.07,0-.02-.01-.05-.02-.07,0-.02,0-.05-.01-.07,0-.02,0-.05-.01-.07,0-.02,0-.05-.01-.07,0-.02,0-.05,0-.07,0-.02,0-.05,0-.07,0-.02,0-.05,0-.07,0-.02,0-.05,0-.07,0-.15-.01-.3-.02-.45,0-.16,0-.32,0-.48,0-.16,0-.32,0-.49,0-.16.01-.31.02-.47,0-.02,0-.05,0-.07,0-.02,0-.05,0-.07,0-.02,0-.05,0-.07,0-.02,0-.05,0-.07,0-.02,0-.05.01-.07,0-.02,0-.05.01-.07,0-.02,0-.05.01-.07,0-.02.01-.05.02-.07,0-.02.01-.05.02-.07,0-.02.01-.05.02-.07,0-.02.01-.05.02-.07,0-.02.01-.05.02-.07,0-.02.02-.04.02-.07,0-.02.02-.04.02-.07,0-.02.02-.04.03-.07,0-.02.02-.04.03-.07,0-.02.02-.04.03-.06.01-.02.02-.04.03-.06.01-.02.02-.04.03-.06.01-.02.02-.04.03-.06.01-.02.02-.04.04-.06.01-.02.02-.04.04-.06.01-.02.03-.04.04-.06.01-.02.03-.04.04-.06.01-.02.03-.04.04-.06.01-.02.03-.04.04-.06.01-.02.03-.04.04-.05l.05-.05s.03-.03.05-.05c.02-.02.03-.03.05-.05.02-.02.03-.03.05-.05.02-.02.03-.03.05-.05.02-.02.04-.03.05-.05.02-.02.04-.03.05-.05.02-.02.04-.03.06-.05.02-.01.04-.03.06-.04.02-.01.04-.03.06-.04.02-.01.04-.03.06-.04.02-.01.04-.03.06-.04.02-.01.04-.03.06-.04.02-.01.04-.03.06-.04.02-.01.04-.02.07-.04.02-.01.04-.02.07-.04.02-.01.05-.02.07-.03.02-.01.05-.02.07-.03.02-.01.05-.02.07-.03.02-.01.05-.02.07-.03.02,0,.05-.02.07-.03.03,0,.05-.02.08-.03.03,0,.05-.02.08-.03.03,0,.05-.02.08-.02.03,0,.05-.01.08-.02.03,0,.05-.01.08-.02.03,0,.06-.01.08-.02.03,0,.06-.01.08-.02.03,0,.06-.01.09-.02.03,0,.06,0,.09-.01.03,0,.06,0,.09-.01.03,0,.06,0,.09,0,.03,0,.06,0,.09,0,.03,0,.06,0,.09,0,.03,0,.06,0,.09,0,.03,0,.06,0,.1,0,.03,0,.06,0,.1,0,.03,0,.06,0,.1,0,.03,0,.06,0,.09,0,.03,0,.06,0,.09,0,.03,0,.06,0,.09,0,.03,0,.06,0,.09,0,.03,0,.06,0,.09,0,.03,0,.06,0,.09.01.03,0,.06,0,.09.01.03,0,.06,0,.09.02.03,0,.06.01.08.02.03,0,.06.01.08.02.03,0,.05.01.08.02.03,0,.05.01.08.02.03,0,.05.02.08.02.03,0,.05.02.08.03.03,0,.05.02.08.03.02,0,.05.02.07.03.02.01.05.02.07.03.02.01.05.02.07.03.02.01.05.02.07.03.02.01.05.02.07.03.02.01.04.02.07.04.02.01.04.02.07.04.02.01.04.03.06.04.02.01.04.03.06.04.02.01.04.03.06.04.02.01.04.03.06.04.02.01.04.03.06.04.02.01.04.03.06.04.02.02.04.03.06.05.02.02.04.03.05.05.02.02.04.03.05.05.02.02.03.03.05.05.02.02.03.03.05.05.02.02.03.03.05.05.02.02.03.03.05.05l.05.05s.03.04.04.05c.01.02.03.04.04.06.01.02.03.04.04.06.01.02.03.04.04.06.01.02.03.04.04.06.01.02.02.04.04.06.01.02.02.04.04.06.01.02.02.04.03.06.01.02.02.04.03.06.01.02.02.04.03.06,0,.02.02.04.03.06,0,.02.02.04.03.07,0,.02.02.04.03.07,0,.02.02.04.02.07,0,.02.02.04.02.07,0,.02.01.05.02.07,0,.02.01.05.02.07,0,.02.01.05.02.07,0,.02.01.05.02.07,0,.02.01.05.02.07,0,.02,0,.05.01.07,0,.02,0,.05.01.07,0,.02,0,.05.01.07,0,.02,0,.05,0,.07,0,.02,0,.05,0,.07,0,.02,0,.05,0,.07,0,.02,0,.05,0,.07,0,.16.01.31.02.47,0,.16,0,.32,0,.49,0,.16,0,.32,0,.48ZM159.98,102.54h-1.61c-.18.02-.36-.08-.43-.24-.46-.64-.91-1.27-1.37-1.91-.45.64-.9,1.27-1.36,1.91-.08.16-.26.26-.43.24h-1.61c-.16,0-.28-.21-.2-.35.82-1.14,1.63-2.28,2.45-3.42-.78-1.1-1.56-2.2-2.34-3.29-.08-.14.04-.35.2-.35h1.6c.18,0,.36.11.44.26.43.6.85,1.19,1.28,1.79.41-.6.83-1.19,1.24-1.79.09-.16.26-.26.44-.26h1.62c.12,0,.22.11.23.23,0,.04,0,.08-.03.12-.78,1.11-1.57,2.22-2.35,3.34.81,1.13,1.62,2.25,2.42,3.38.02.04.03.08.03.12,0,.12-.11.23-.23.23ZM160.21,81.66s0,.02,0,.03c0,.01,0,.02,0,.03,0,.01,0,.02,0,.03,0,.01,0,.02,0,.03,0,.01,0,.02,0,.03,0,.01,0,.02,0,.03,0,.01,0,.02,0,.03,0,.01,0,.02,0,.03,0,.01,0,.02,0,.03,0,0,0,.02,0,.03,0,0,0,.02-.01.03,0,0,0,.02-.01.03,0,0,0,.02-.01.03,0,0,0,.02-.01.03,0,0,0,.02-.01.03,0,0-.01.02-.02.03,0,0-.01.02-.02.03,0,0-.01.02-.02.03,0,0-.01.02-.02.03,0,0-.01.02-.02.02,0,0-.01.02-.02.02,0,0-.01.02-.02.02,0,0-.01.02-.02.02,0,0-.02.01-.02.02,0,0-.02.01-.02.02,0,0-.02.01-.02.02,0,0-.02.01-.02.02,0,0-.02.01-.03.02,0,0-.02.01-.03.02,0,0-.02.01-.03.02,0,0-.02.01-.03.02,0,0-.02,0-.03.01,0,0-.02,0-.03.01,0,0-.02,0-.03.01,0,0-.02,0-.03.01,0,0-.02,0-.03.01,0,0-.02,0-.03,0,0,0-.02,0-.03,0-.01,0-.02,0-.03,0-.01,0-.02,0-.03,0-.01,0-.02,0-.03,0-.01,0-.02,0-.03,0-.01,0-.02,0-.03,0-.01,0-.02,0-.03,0-.01,0-.02,0-.03,0-.01,0-.02,0-.03,0h-.3s-.03,0-.04,0c-.01,0-.03,0-.04,0-.01,0-.03,0-.04,0h-.04s-.03,0-.04.01c-.01,0-.03,0-.04,0-.01,0-.03,0-.04,0-.01,0-.03,0-.04.01-.01,0-.03,0-.04.01-.01,0-.03,0-.04.01-.01,0-.03,0-.04.01-.01,0-.02.01-.04.02-.01,0-.02.01-.04.02-.01,0-.02.01-.04.02-.01,0-.02.01-.04.02-.01,0-.02.01-.03.02-.01,0-.02.01-.03.02-.01,0-.02.02-.03.02-.01,0-.02.02-.03.02-.01,0-.02.02-.03.02-.01,0-.02.02-.03.03,0,0-.02.02-.03.03,0,0-.02.02-.03.03,0,0-.02.02-.03.03,0,0-.02.02-.03.03,0,.01-.02.02-.03.03,0,.01-.02.02-.02.03,0,.01-.02.02-.02.03,0,.01-.02.02-.02.03,0,.01-.01.02-.02.03,0,.01-.01.02-.02.03,0,.01-.01.02-.02.04,0,.01-.01.02-.02.04,0,.01-.01.02-.02.04,0,.01-.01.02-.02.04,0,.01,0,.03-.01.04,0,.01,0,.03-.01.04,0,.01,0,.03-.01.04,0,.01,0,.03-.01.04,0,.01,0,.03,0,.04,0,.01,0,.03,0,.04,0,.01,0,.03,0,.04v.04s0,.03,0,.04c0,.01,0,.03,0,.04,0,.01,0,.03,0,.04v1.78c0,.06,0,.11,0,.17,0,.06,0,.11,0,.17,0,.06,0,.11-.01.17,0,.06-.01.11-.02.17,0,.06-.02.11-.03.17-.01.05-.02.11-.03.16-.01.05-.02.11-.04.16-.01.05-.03.11-.04.16-.02.05-.03.11-.05.16-.02.05-.04.11-.05.16l-.06.16c-.02.05-.04.1-.06.15-.02.05-.05.1-.07.15-.02.05-.05.1-.07.15-.03.05-.05.1-.08.15-.03.05-.06.1-.08.14-.03.05-.06.09-.09.14-.03.05-.06.09-.09.14-.03.05-.07.09-.1.14-.03.04-.07.09-.1.13-.04.04-.07.09-.11.13-.04.04-.07.08-.11.12-.04.04-.08.08-.12.12-.04.04-.08.08-.12.12-.04.04-.08.07-.12.11-.04.04-.09.07-.13.11-.04.03-.09.07-.13.1-.05.03-.09.07-.14.1-.05.03-.09.06-.14.09-.05.03-.09.06-.14.09-.05.03-.1.06-.14.08-.05.03-.1.05-.15.08-.05.02-.1.05-.15.07-.05.02-.1.05-.15.07-.05.02-.1.04-.15.06-.05.02-.1.04-.16.06-.05.02-.11.04-.16.05-.05.02-.11.03-.16.05-.05.01-.11.03-.16.04-.05.01-.11.02-.16.04-.05.01-.11.02-.16.03-.06,0-.11.02-.17.03-.06,0-.11.01-.17.02-.06,0-.11,0-.17.01-.06,0-.11,0-.17,0-.06,0-.11,0-.17,0-7.05,0-14.11,0-21.17,0-3.28,0-6.57,0-9.85,0-.03,0-.07-.01-.09-.04-1.05-1.05-2.09-2.09-3.14-3.14-.05-.05-.05-.14,0-.18l3.14-3.14s.06-.04.09-.04h28.56s.02,0,.03,0c0,0,.02,0,.03,0,0,0,.02,0,.03,0,0,0,.02,0,.03,0,0,0,.02,0,.03,0,0,0,.02,0,.03,0,0,0,.02,0,.03,0,0,0,.02,0,.03,0,0,0,.02,0,.03,0,0,0,.02,0,.03,0,0,0,.02,0,.03,0,0,0,.02,0,.03-.01,0,0,.02,0,.03-.01,0,0,.02,0,.02-.01,0,0,.02,0,.02-.01,0,0,.02,0,.02-.01,0,0,.02-.01.02-.02,0,0,.02-.01.02-.02l.02-.02s.01-.01.02-.02c0,0,.01-.01.02-.02,0,0,.01-.01.02-.02,0,0,.01-.01.02-.02,0,0,.01-.01.02-.02,0,0,.01-.01.02-.02,0,0,.01-.01.02-.02,0,0,.01-.01.02-.02l.02-.02.02-.02s0-.02.01-.02c0,0,0-.02.01-.02,0,0,0-.02.01-.02,0,0,0-.02.01-.02,0,0,0-.02.01-.03,0,0,0-.02.01-.03,0,0,0-.02,0-.03,0,0,0-.02,0-.03,0,0,0-.02,0-.03,0,0,0-.02,0-.03,0,0,0-.02,0-.03,0,0,0-.02,0-.03,0,0,0-.02,0-.03,0,0,0-.02,0-.03,0,0,0-.02,0-.03,0,0,0-.02,0-.03,0,0,0-.02,0-.03v-8.18s0-.02,0-.03c0,0,0-.02,0-.03,0,0,0-.02,0-.03,0,0,0-.02,0-.03,0,0,0-.02,0-.03,0,0,0-.02,0-.03,0,0,0-.02,0-.03,0,0,0-.02,0-.03,0,0,0-.02,0-.03,0,0,0-.02,0-.03,0,0,0-.02,0-.03,0,0,0-.02-.01-.03,0,0,0-.02-.01-.03,0,0,0-.02-.01-.03,0,0,0-.02-.01-.02,0,0,0-.02-.01-.02,0,0,0-.02-.01-.02,0,0-.01-.02-.02-.02,0,0-.01-.02-.02-.02,0,0-.01-.01-.02-.02,0,0-.01-.01-.02-.02,0,0-.01-.01-.02-.02,0,0-.01-.01-.02-.02,0,0-.01-.01-.02-.02,0,0-.01-.01-.02-.02,0,0-.01-.01-.02-.02,0,0-.01-.01-.02-.02l-.02-.02s-.02-.01-.02-.02c0,0-.02-.01-.02-.01,0,0-.02,0-.02-.01,0,0-.02,0-.02-.01,0,0-.02,0-.02-.01,0,0-.02,0-.03-.01,0,0-.02,0-.03-.01,0,0-.02,0-.03,0,0,0-.02,0-.03,0,0,0-.02,0-.03,0,0,0-.02,0-.03,0,0,0-.02,0-.03,0,0,0-.02,0-.03,0,0,0-.02,0-.03,0,0,0-.02,0-.03,0,0,0-.02,0-.03,0,0,0-.02,0-.03,0,0,0-.02,0-.03,0h-8.68c-.1,0-.17-.15-.09-.22.99-.99,1.97-1.97,2.95-2.95.02-.02.04-.06.04-.09s-.01-.07-.04-.09c-.99-.99-1.97-1.97-2.95-2.95-.07-.07-.01-.22.09-.22h11.13c.06,0,.11,0,.17,0,.06,0,.11,0,.17,0,.06,0,.11,0,.17.01.06,0,.11.01.17.02.06,0,.11.02.17.03.05.01.11.02.16.03.05.01.11.02.16.04.05.01.11.03.16.04.05.02.11.03.16.05.05.02.11.04.16.05.05.02.1.04.16.06.05.02.1.04.15.06.05.02.1.05.15.07.05.02.1.05.15.07.05.03.1.05.15.08l.14.08s.09.06.14.09c.05.03.09.06.14.09.05.03.09.07.14.1.04.03.09.07.13.1.04.04.09.07.13.11.04.04.08.07.12.11.04.04.08.08.12.12.04.04.08.08.12.12.04.04.07.08.11.12.04.04.07.09.11.13.03.04.07.09.1.13.03.05.07.09.1.14.03.05.06.09.09.14.03.05.06.09.09.14.03.05.06.1.08.14.03.05.05.1.08.15.02.05.05.1.07.15.02.05.05.1.07.15.02.05.04.1.06.15.02.05.04.1.06.16.02.05.04.11.05.16.02.05.03.11.05.16.01.05.03.11.04.16.01.05.02.11.04.16.01.05.02.11.03.16,0,.06.02.11.03.17,0,.06.01.11.02.17,0,.06,0,.11.01.17,0,.06,0,.11,0,.17,0,.06,0,.11,0,.17v1.78s0,.03,0,.04c0,.01,0,.03,0,.04,0,.01,0,.03,0,.04v.04s0,.03.01.04c0,.01,0,.03,0,.04,0,.01,0,.03,0,.04,0,.01,0,.03.01.04,0,.01,0,.03.01.04,0,.01,0,.03.01.04,0,.01,0,.03.01.04,0,.01.01.02.02.04,0,.01.01.02.02.04,0,.01.01.02.02.04,0,.01.01.02.02.04,0,.01.01.02.02.03,0,.01.01.02.02.03,0,.01.02.02.02.03,0,.01.02.02.02.03,0,.01.02.02.02.03,0,.01.02.02.03.03,0,0,.02.02.03.03,0,0,.02.02.03.03,0,0,.02.02.03.03,0,0,.02.02.03.03.01,0,.02.02.03.03.01,0,.02.02.03.02.01,0,.02.02.03.02.01,0,.02.02.03.02.01,0,.02.01.03.02.01,0,.02.01.03.02.01,0,.02.01.04.02.01,0,.02.01.04.02.01,0,.02.01.04.02.01,0,.02.01.04.02.01,0,.03,0,.04.01.01,0,.03,0,.04.01.01,0,.03,0,.04.01.01,0,.03,0,.04.01.01,0,.03,0,.04,0,.01,0,.03,0,.04,0,.01,0,.03,0,.04,0h.04s.03,0,.04,0c.01,0,.03,0,.04,0,.01,0,.03,0,.04,0h.3s.02,0,.03,0c.01,0,.02,0,.03,0,.01,0,.02,0,.03,0,.01,0,.02,0,.03,0,.01,0,.02,0,.03,0,.01,0,.02,0,.03,0,.01,0,.02,0,.03,0,.01,0,.02,0,.03,0,.01,0,.02,0,.03,0,0,0,.02,0,.03.01,0,0,.02,0,.03.01,0,0,.02,0,.03.01,0,0,.02,0,.03.01,0,0,.02,0,.03.01,0,0,.02,0,.03.01,0,0,.02.01.03.02,0,0,.02.01.03.02,0,0,.02.01.03.02,0,0,.02.01.03.02,0,0,.02.01.02.02l.02.02s.02.01.02.02c0,0,.01.01.02.02,0,0,.01.02.02.02,0,0,.01.02.02.02,0,0,.01.02.02.02,0,0,.01.02.02.02,0,0,.01.02.02.03,0,0,.01.02.02.03,0,0,.01.02.02.03,0,0,.01.02.02.03,0,0,0,.02.01.03,0,0,0,.02.01.03,0,0,0,.02.01.03,0,0,0,.02.01.03,0,0,0,.02.01.03,0,0,0,.02,0,.03,0,.01,0,.02,0,.03,0,.01,0,.02,0,.03,0,.01,0,.02,0,.03,0,.01,0,.02,0,.03,0,.01,0,.02,0,.03,0,.01,0,.02,0,.03,0,.01,0,.02,0,.03,0,.01,0,.02,0,.03,0,.01,0,.02,0,.03v5.34Z" fill="#fff"/>
    <path d="M106.4,97.5s0-.02,0-.03c0,0,0-.02,0-.03,0,0,0-.02,0-.03,0,0,0-.02,0-.02,0,0,0-.02,0-.02,0,0,0-.02,0-.02,0,0,0-.02,0-.02,0,0,0-.02,0-.02,0,0,0-.01,0-.02v-.02s-.01-.01-.01-.02c0,0,0-.01,0-.02,0,0,0-.01,0-.02,0,0,0-.01,0-.02,0,0,0,0,0,0,0,0,0,0,0,0,0,0,0,0,0,0,0,0,0,0,0,0,0,0,0,0,0,0,0,0,0,0,0,0,0,0,0,0,0,0,0,0,0,0,0,0s0,0,0,0,0,0,0,0c0,0,0,0,0,0,0,0,0,0,0,0,0,0,0,0,0,0,0,0,0,0,0,0,0,0,0,0,0,0,0,0,0,0,0,0,0,0,0,0,0,0,0,0,0,0,0,0,0,0,0,0,0,0,0,0,0,0,0,0s0,0,0,0c0,0,0,0,0,0,0,0,0,0,0,0,0,0,0,0,0,0,0,0,0,0,0,0,0,0,0,0,0,0,0,0,0,0,0,0,0,0,0,0,0,0,0,0,0,0,0,0,0,0,0,0,0,0,0,0,0,0,0,0,0,0,0,0,0,0,0,0-.01,0-.02-.01,0,0-.01,0-.02-.01,0,0-.01,0-.02,0,0,0-.01,0-.02,0,0,0-.01,0-.02,0,0,0-.01,0-.02,0,0,0-.01,0-.02,0,0,0-.01,0-.02,0,0,0-.01,0-.02,0,0,0-.01,0-.02,0,0,0-.01,0-.02,0,0,0-.01,0-.02,0-.01,0-.03,0-.04-.01-.02,0-.03,0-.05-.01-.02,0-.03,0-.05,0-.02,0-.03,0-.05,0-.02,0-.03,0-.05,0-.02,0-.03,0-.05,0-.02,0-.03,0-.05,0-.02,0-.04,0-.05,0-.02,0-.04,0-.05,0-.02,0-.04,0-.05,0h-1.2v1.57h1.2s.04,0,.05,0c.02,0,.04,0,.05,0,.02,0,.04,0,.05,0,.02,0,.03,0,.05,0,.02,0,.03,0,.05,0,.02,0,.03,0,.05,0,.02,0,.03,0,.05,0,.02,0,.03,0,.05,0,.02,0,.03,0,.05-.01.01,0,.03,0,.04-.01,0,0,.01,0,.02,0,0,0,.01,0,.02,0,0,0,.01,0,.02,0,0,0,.01,0,.02,0,0,0,.01,0,.02,0,0,0,.01,0,.02,0,0,0,.01,0,.02,0,0,0,.01,0,.02,0,0,0,.01,0,.02,0,0,0,.01,0,.02,0,0,0,.01,0,.02-.01,0,0,.01,0,.02-.01,0,0,0,0,0,0,0,0,0,0,0,0,0,0,0,0,0,0,0,0,0,0,0,0,0,0,0,0,0,0,0,0,0,0,0,0,0,0,0,0,0,0,0,0,0,0,0,0,0,0,0,0,0,0,0,0,0,0,0,0,0,0,0,0,0,0,0,0,0,0,0,0,0,0,0,0,0,0,0,0,0,0,0,0,0,0,0,0,0,0,0,0,0,0,0,0,0,0,0,0,0,0,0,0,0,0,0,0,0,0,0,0,0,0,0,0,0,0,0,0,0,0,0,0,0,0,0,0,0,0,0,0,0,0,0,0,0,0s0,0,0,0c0,0,0,0,0,0,0,0,0,0,0,0,0,0,0,0,0,0,0,0,0,0,0,0,0,0,0,0,0,0,0,0,0,0,0,0,0,0,0,0,0,0,0,0,0,0,0,0,0,0,0-.01,0-.02,0,0,0-.01,0-.02,0,0,0-.01,0-.02,0,0,0-.01,0-.02v-.02s.01-.01.01-.02c0,0,0-.02,0-.02,0,0,0-.02,0-.02,0,0,0-.02,0-.02,0,0,0-.02,0-.02,0,0,0-.02,0-.02,0,0,0-.02,0-.03,0,0,0-.02,0-.03,0,0,0-.02,0-.03,0,0,0-.02,0-.03,0,0,0-.02,0-.03,0,0,0-.02,0-.03,0,0,0-.02,0-.03Z" fill="#fff"/>
  </g>
</svg>